<svg xmlns="http://www.w3.org/2000/svg" viewBox="0 0 610 560"><path d="M304.8 99.2L142.3 41.9v353.6l162.5-52.6z"/><path fill="#FFF" d="M300.9 99l168.7-57.3v353.6l-168.7-52.5zM100.2 457.4l200.7-66.9V99l-200.7 66.9z"/><path d="M392.4 461.8l28.4 46.8 15-43.5zM168.5 199.5c-1.1-1 1.4 8.6 4.8 12 6.1 6.1 10.8 6.9 13.3 7 5.6.2 12.5-1.4 16.5-3.1 4-1.7 10.9-5.2 13.5-10.4.6-1.1 2.1-3 1.1-7.5-.7-3.5-3-4.8-5.7-4.6-2.7.2-11 2.4-15 3.6-4 1.2-12.2 3.7-15.8 4.5-3.6.8-11.5-.3-12.7-1.5zM269.7 314.3c-1.6-.6-34.3-14.1-38.9-16.4a368 368 0 0 0-17.5-7.5c12.3-19 20.1-33.4 21.2-35.6 1.9-4 15-29.5 15.3-31.1.3-1.6.7-7.5.4-8.9-.3-1.4-5.1 1.3-11.6 3.5s-18.9 10.2-23.7 11.2c-4.8 1-20.1 6.8-28 9.4-7.8 2.6-22.7 7.1-28.8 8.8-6.1 1.6-11.4 1.8-14.9 2.8 0 0 .5 4.8 1.4 6.2.9 1.4 4.1 5 7.9 5.9 3.8 1 10 .6 12.8-.1 2.8-.7 7.7-3.1 8.4-4.1.7-1.1-.3-4.3.8-5.3s16.1-4.5 21.7-6.2c5.6-1.7 27.2-9.2 30.1-8.8a916 916 0 0 1-23.9 47.7 821 821 0 0 1-45 63.3c-5.3 6-18 21.5-22.4 25 1.1.3 9-.4 10.4-1.3 8.9-5.5 23.8-24.1 28.6-29.7a489.1 489.1 0 0 0 36.7-49.4c1.9.8 17.6 13.6 21.7 16.4a293 293 0 0 0 23.7 13.3c3.5 1.5 16.9 7.7 17.5 5.6.7-1.8-2.3-14.1-3.9-14.7z"/><path fill-rule="evenodd" d="M194.1 484.7a204.9 204.9 0 0 0 30.7 14.5 233.6 233.6 0 0 0 46.4 12c.5 0 16 1.9 19.2 1.9h15.7c6.1-.5 11.8-.9 17.9-1.7 4.9-.7 10.3-1.6 15.5-2.8 3.8-.9 7.8-1.7 11.7-3 3.7-1 7.8-2.4 11.8-3.8l8.2-3.1c2.3-1 5.1-2.3 7.7-3.3a243 243 0 0 0 19.2-10c2.3-1.2 7.5-5.2 10.3-5.2 3.1 0 5.2 2.8 5.2 5.2 0 5.1-6.8 6.6-9.9 8.9-3.3 2.3-7.3 4-10.8 5.9-7 3.7-14.1 6.8-20.9 9.4a251 251 0 0 1-27.3 8.5c-3.3.7-6.6 1.6-9.9 2.1-1.7.3-19.9 3.1-24.9 3.1h-23a293.9 293.9 0 0 1-35.1-5.2 196 196 0 0 1-33.1-10.3c-12-4.5-24.6-10.5-36.4-18.3-2.1-1.4-2.3-2.8-2.3-4.4a5 5 0 0 1 5.1-5.1c2.4.1 8 4.2 9 4.7zM295.5 386.6l-189.9 63.2V169.7l189.9-63.2v280.1zm10.6-288.3V391a6 6 0 0 1-1.2 2.6c-.3.5-1 1.2-1.6 1.4a14621 14621 0 0 1-203.1 67.6c-2.1 0-4-1.4-5.1-3.7 0-.2-.2-.3-.2-.7V165.4c.3-.9.5-2.1 1.2-2.8 1.4-1.9 3.8-2.3 5.4-2.8 3-1 196.1-65.8 198.9-65.8 1.9 0 5.7 1.2 5.7 4.3z" clip-rule="evenodd"/><path fill-rule="evenodd" d="M464.3 388l-158-49.1v-236l158-53.7V388zm10.6-345.8v352.4c-.2 4-3 5.7-5.6 5.7-2.3 0-18.6-5.6-21.4-6.4l-65.8-20.4-14.6-4.7-12.9-4c-18.6-5.7-37.6-11.5-56.3-17.8-.7-.2-2.4-2.6-2.4-3.1V97.8c.3-.9.7-1.9 1.6-2.6 1.4-1.6 61.1-21.4 84.7-29.3 6.3-2.3 84.8-29.3 87.3-29.3 3 .1 5.4 2.3 5.4 5.6z" clip-rule="evenodd"/><path d="M515 461.8l-211.1-67.3.9-292.8L515 168.6z"/><g><path fill="#FFF" fill-rule="evenodd" d="M408.6 232.5l-20.7 50.1 38.1 11.5-17.4-61.6zm-12.4-47.2l27.2 8.2 49.5 178.6-27.9-8.5-10-36.7-57.7-17.5-12.4 29.9-27.9-8.5 59.2-145.5z" clip-rule="evenodd"/></g></svg>