<svg xmlns="http://www.w3.org/2000/svg" version="1" viewBox="5.5 -3.5 64 64"><circle cx="37.8" cy="28.5" r="28.8" fill="#fff"/><path d="M37.4-3.5a31.2 31.2 0 0 1 29.8 19.7 32.6 32.6 0 0 1 0 24.6 32.9 32.9 0 0 1-29.7 19.7A31.1 31.1 0 0 1 14.8 51 31.9 31.9 0 0 1 37.4-3.5zm.2 5.8C30.2 2.3 24 4.8 19 9.9a27.5 27.5 0 0 0-5.8 8.6 25.2 25.2 0 0 0 0 20 26.5 26.5 0 0 0 43 8.3c5-4.8 7.4-11 7.4-18.3A26.3 26.3 0 0 0 56.1 10a25.3 25.3 0 0 0-18.5-7.7zm-.4 20.9l-4.3 2.2c-.5-1-1-1.6-1.7-2-.7-.4-1.3-.6-1.9-.6-2.8 0-4.3 2-4.3 5.7 0 1.7.4 3 1.1 4.1.7 1 1.8 1.6 3.2 1.6 1.9 0 3.2-1 4-2.8l4 2a9.4 9.4 0 0 1-8.5 5c-2.8 0-5.2-.8-6.9-2.6a9.9 9.9 0 0 1-2.6-7.3c0-3 .9-5.5 2.6-7.3a9 9 0 0 1 6.7-2.6c4 0 6.8 1.5 8.6 4.6zm18.4 0l-4.2 2.2c-.5-1-1-1.6-1.7-2-.7-.4-1.3-.6-2-.6-2.8 0-4.2 2-4.2 5.7 0 1.7.4 3 1 4.1s1.9 1.6 3.3 1.6c1.8 0 3.2-1 4-2.8l4 2c-1 1.6-2.1 2.8-3.6 3.7a9.2 9.2 0 0 1-4.9 1.3c-2.9 0-5.2-.8-7-2.6a10 10 0 0 1-2.5-7.3c0-3 .9-5.5 2.6-7.3a9 9 0 0 1 6.8-2.6c4 0 6.7 1.5 8.4 4.6z"/></svg>