<svg xmlns="http://www.w3.org/2000/svg" version="1" viewBox="5.5 -3.5 64 64"><circle cx="37.6" cy="28.8" r="28.3" fill="#fff"/><path d="M37.4-3.5c9 0 16.6 3 22.8 9.3a31 31 0 0 1 9.3 22.7c0 9-3 16.5-9.1 22.5a31.6 31.6 0 0 1-23 9.5A31 31 0 0 1 15 51.1a30.8 30.8 0 0 1-9.4-22.6c0-8.8 3.1-16.3 9.4-22.7a30.6 30.6 0 0 1 22.5-9.3zm.2 5.8A25 25 0 0 0 19 9.9a25.7 25.7 0 0 0 0 37 25.3 25.3 0 0 0 18.5 7.8c7 0 13.3-2.6 18.6-7.9 5-4.8 7.5-11 7.5-18.3 0-7.3-2.5-13.5-7.6-18.6a25.2 25.2 0 0 0-18.5-7.6zM46 20.6v13h-3.6v15.6h-10V33.6H29v-13c0-.6.2-1.1.6-1.5a2 2 0 0 1 1.4-.6h13.2c.5 0 1 .2 1.4.6.4.4.6.9.6 1.5zm-13-8.3c0-3 1.4-4.5 4.4-4.5S42 9.3 42 12.3s-1.5 4.5-4.5 4.5-4.5-1.5-4.5-4.5z"/></svg>