<?xml version="1.0" encoding="utf-8"?>
<!-- Generator: Adobe Illustrator 18.1.1, SVG Export Plug-In . SVG Version: 6.00 Build 0)  -->
<svg version="1.1" xmlns="http://www.w3.org/2000/svg" xmlns:xlink="http://www.w3.org/1999/xlink" x="0px" y="0px"
	 viewBox="0 0 610 560" enable-background="new 0 0 610 560" xml:space="preserve">
<g id="Layer_2">
</g>
<g id="Layer_x5F_1_x5F_1">
	<g>
		<polygon points="304.8,99.2 142.3,41.9 142.3,395.5 304.8,342.9 		"/>
		<polygon fill="#FFFFFF" points="300.9,99 469.6,41.7 469.6,395.3 300.9,342.8 		"/>
		<polygon fill="#FFFFFF" points="100.2,457.4 300.9,390.5 300.9,99 100.2,165.9 		"/>
		<polygon points="392.4,461.8 420.8,508.6 435.8,465.1 		"/>
		<g>
			<path d="M168.5,199.5c-1.1-1,1.4,8.6,4.8,12c6.1,6.1,10.8,6.9,13.3,7c5.6,0.2,12.5-1.4,16.5-3.1c4-1.7,10.9-5.2,13.5-10.4
				c0.6-1.1,2.1-3,1.1-7.5c-0.7-3.5-3-4.8-5.7-4.6c-2.7,0.2-11,2.4-15,3.6c-4,1.2-12.2,3.7-15.8,4.5
				C177.6,201.8,169.7,200.7,168.5,199.5z"/>
			<path d="M269.7,314.3c-1.6-0.6-34.3-14.1-38.9-16.4c-3.8-1.8-13.1-5.8-17.5-7.5c12.3-19,20.1-33.4,21.2-35.6
				c1.9-4,15-29.5,15.3-31.1c0.3-1.6,0.7-7.5,0.4-8.9c-0.3-1.4-5.1,1.3-11.6,3.5c-6.5,2.2-18.9,10.2-23.7,11.2
				c-4.8,1-20.1,6.8-28,9.4c-7.8,2.6-22.7,7.1-28.8,8.8c-6.1,1.6-11.4,1.8-14.9,2.8c0,0,0.5,4.8,1.4,6.2c0.9,1.4,4.1,5,7.9,5.9
				c3.8,1,10,0.6,12.8-0.1c2.8-0.7,7.7-3.1,8.4-4.1c0.7-1.1-0.3-4.3,0.8-5.3c1.1-1,16.1-4.5,21.7-6.2c5.6-1.7,27.2-9.2,30.1-8.8
				c-0.9,3.1-18.3,37.5-23.9,47.7c-5.6,10.3-38.1,55.4-45,63.3c-5.3,6-18,21.5-22.4,25c1.1,0.3,9-0.4,10.4-1.3
				c8.9-5.5,23.8-24.1,28.6-29.7c14.3-16.7,26.8-34.3,36.7-49.4h0c1.9,0.8,17.6,13.6,21.7,16.4c4.1,2.8,20.2,11.8,23.7,13.3
				c3.5,1.5,16.9,7.7,17.5,5.6C274.3,327.2,271.3,314.9,269.7,314.3z"/>
		</g>
		<path fill-rule="evenodd" clip-rule="evenodd" d="M194.1,484.7c3.1,1.9,6.1,3.5,9.4,5.1c6.6,3.3,14.1,6.8,21.3,9.4
			c9.8,3.7,19.5,6.6,29.3,8.9c5.4,1.2,11.3,2.3,17.1,3.1c0.5,0,16,1.9,19.2,1.9h15.7c6.1-0.5,11.8-0.9,17.9-1.7
			c4.9-0.7,10.3-1.6,15.5-2.8c3.8-0.9,7.8-1.7,11.7-3c3.7-1,7.8-2.4,11.8-3.8c2.6-0.9,5.4-2.1,8.2-3.1c2.3-1,5.1-2.3,7.7-3.3
			c3.1-1.4,6.8-3.3,10.3-5.1c2.8-1.4,5.9-3.1,8.9-4.9c2.3-1.2,7.5-5.2,10.3-5.2c3.1,0,5.2,2.8,5.2,5.2c0,5.1-6.8,6.6-9.9,8.9
			c-3.3,2.3-7.3,4-10.8,5.9c-7,3.7-14.1,6.8-20.9,9.4c-8.9,3.3-18.6,6.4-27.3,8.5c-3.3,0.7-6.6,1.6-9.9,2.1
			c-1.7,0.3-19.9,3.1-24.9,3.1h-23c-6.1-0.5-12.5-1.2-18.6-2.1c-5.4-0.9-11.1-1.9-16.5-3.1c-4.2-0.9-8.7-2.1-12.7-3.3
			c-7-1.9-13.8-4.4-20.4-7c-12-4.5-24.6-10.5-36.4-18.3c-2.1-1.4-2.3-2.8-2.3-4.4c0-2.6,1.9-5.1,5.1-5.1
			C187.5,480.1,193.1,484.2,194.1,484.7z"/>
		<path fill-rule="evenodd" clip-rule="evenodd" d="M295.5,386.6l-189.9,63.2V169.7l189.9-63.2V386.6z M306.1,98.3V391
			c-0.2,0.9-0.5,1.7-1.2,2.6c-0.3,0.5-1,1.2-1.6,1.4c-4.4,1.7-200.5,67.6-203.1,67.6c-2.1,0-4-1.4-5.1-3.7c0-0.2-0.2-0.3-0.2-0.7
			V165.4c0.3-0.9,0.5-2.1,1.2-2.8c1.4-1.9,3.8-2.3,5.4-2.8c3-1,196.1-65.8,198.9-65.8C302.3,94,306.1,95.2,306.1,98.3z"/>
		<path fill-rule="evenodd" clip-rule="evenodd" d="M464.3,388l-158-49.1v-236l158-53.7V388z M474.9,42.2v352.4
			c-0.2,4-3,5.7-5.6,5.7c-2.3,0-18.6-5.6-21.4-6.4c-21.9-6.8-44.1-13.6-65.8-20.4c-4.9-1.6-9.9-3.1-14.6-4.7
			c-4.2-1.2-8.7-2.6-12.9-4c-18.6-5.7-37.6-11.5-56.3-17.8c-0.7-0.2-2.4-2.6-2.4-3.1V97.8c0.3-0.9,0.7-1.9,1.6-2.6
			c1.4-1.6,61.1-21.4,84.7-29.3c6.3-2.3,84.8-29.3,87.3-29.3C472.5,36.7,474.9,38.9,474.9,42.2z"/>
		<polygon points="515,461.8 303.9,394.5 304.8,101.7 515,168.6 		"/>
		<g>
			<path fill-rule="evenodd" clip-rule="evenodd" fill="#FFFFFF" d="M408.6,232.5l-20.7,50.1l38.1,11.5L408.6,232.5z M396.2,185.3
				l27.2,8.2l49.5,178.6l-27.9-8.5l-10-36.7l-57.7-17.5l-12.4,29.9l-27.9-8.5L396.2,185.3z"/>
		</g>
	</g>
</g>
</svg>
