<svg xmlns="http://www.w3.org/2000/svg" id="Layer_1" viewBox="427 -87 1154 474" enable-background="new 427 -87 1154 474"><style>.st0{filter:url(#Adobe_OpacityMaskFilter);} .st1{fill:#FFFFFF;} .st2{mask:url(#mask-2);} .st3{filter:url(#Adobe_OpacityMaskFilter_1_);} .st4{mask:url(#mask-4);fill:#2E3E47;} .st5{filter:url(#Adobe_OpacityMaskFilter_2_);} .st6{mask:url(#mask-6);fill:none;stroke:#526B78;stroke-width:4;} .st7{filter:url(#Adobe_OpacityMaskFilter_3_);} .st8{mask:url(#mask-8);fill:#FFFFFF;} .st9{filter:url(#Adobe_OpacityMaskFilter_4_);} .st10{mask:url(#mask-10);} .st11{filter:url(#Adobe_OpacityMaskFilter_5_);} .st12{mask:url(#mask-12);fill:#2E3E47;} .st13{filter:url(#Adobe_OpacityMaskFilter_6_);} .st14{mask:url(#mask-14);fill:none;stroke:#526B78;stroke-width:4;} .st15{filter:url(#Adobe_OpacityMaskFilter_7_);} .st16{mask:url(#mask-16);fill:#FFFFFF;} .st17{filter:url(#Adobe_OpacityMaskFilter_8_);} .st18{mask:url(#mask-18);} .st19{filter:url(#Adobe_OpacityMaskFilter_9_);} .st20{mask:url(#mask-20);fill:#2E3E47;} .st21{filter:url(#Adobe_OpacityMaskFilter_10_);} .st22{mask:url(#mask-22);fill:none;stroke:#526B78;stroke-width:4;} .st23{filter:url(#Adobe_OpacityMaskFilter_11_);} .st24{mask:url(#mask-24);fill:#FFFFFF;} .st25{filter:url(#Adobe_OpacityMaskFilter_12_);} .st26{mask:url(#mask-26);} .st27{filter:url(#Adobe_OpacityMaskFilter_13_);} .st28{mask:url(#mask-28);fill:#2E3E47;} .st29{filter:url(#Adobe_OpacityMaskFilter_14_);} .st30{mask:url(#mask-30);fill:none;stroke:#526B78;stroke-width:4;} .st31{filter:url(#Adobe_OpacityMaskFilter_15_);} .st32{mask:url(#mask-32);fill:#FFFFFF;} .st33{filter:url(#Adobe_OpacityMaskFilter_16_);} .st34{mask:url(#mask-34);} .st35{filter:url(#Adobe_OpacityMaskFilter_17_);} .st36{mask:url(#mask-36);fill:#2E3E47;} .st37{filter:url(#Adobe_OpacityMaskFilter_18_);} .st38{mask:url(#mask-38);fill:none;stroke:#526B78;stroke-width:4;} .st39{filter:url(#Adobe_OpacityMaskFilter_19_);} .st40{mask:url(#mask-40);fill:#FFFFFF;} .st41{filter:url(#Adobe_OpacityMaskFilter_20_);} .st42{mask:url(#mask-42);} .st43{filter:url(#Adobe_OpacityMaskFilter_21_);} .st44{mask:url(#mask-44);fill:#2E3E47;} .st45{filter:url(#Adobe_OpacityMaskFilter_22_);} .st46{mask:url(#mask-46);fill:none;stroke:#526B78;stroke-width:4;} .st47{filter:url(#Adobe_OpacityMaskFilter_23_);} .st48{mask:url(#mask-48);fill:#FFFFFF;} .st49{filter:url(#Adobe_OpacityMaskFilter_24_);} .st50{mask:url(#mask-50);} .st51{filter:url(#Adobe_OpacityMaskFilter_25_);} .st52{mask:url(#mask-52);fill:#2E3E47;} .st53{filter:url(#Adobe_OpacityMaskFilter_26_);} .st54{mask:url(#mask-54);fill:none;stroke:#526B78;stroke-width:4;} .st55{filter:url(#Adobe_OpacityMaskFilter_27_);} .st56{mask:url(#mask-58);} .st57{filter:url(#Adobe_OpacityMaskFilter_28_);} .st58{mask:url(#mask-60);fill:#2E3E47;} .st59{filter:url(#Adobe_OpacityMaskFilter_29_);} .st60{mask:url(#mask-62);fill:none;stroke:#526B78;stroke-width:4;} .st61{filter:url(#Adobe_OpacityMaskFilter_30_);} .st62{mask:url(#mask-64);fill:#FFFFFF;} .st63{filter:url(#Adobe_OpacityMaskFilter_31_);} .st64{mask:url(#mask-66);} .st65{filter:url(#Adobe_OpacityMaskFilter_32_);} .st66{mask:url(#mask-68);fill:#2E3E47;} .st67{filter:url(#Adobe_OpacityMaskFilter_33_);} .st68{mask:url(#mask-70);fill:none;stroke:#526B78;stroke-width:4;} .st69{filter:url(#Adobe_OpacityMaskFilter_34_);} .st70{mask:url(#mask-72);fill:#FFFFFF;} .st71{filter:url(#Adobe_OpacityMaskFilter_35_);} .st72{mask:url(#mask-72_1_);fill:#FFFFFF;} .st73{filter:url(#Adobe_OpacityMaskFilter_36_);} .st74{mask:url(#mask-74);} .st75{filter:url(#Adobe_OpacityMaskFilter_37_);} .st76{mask:url(#mask-76);fill:#2E3E47;} .st77{filter:url(#Adobe_OpacityMaskFilter_38_);} .st78{mask:url(#mask-78);fill:none;stroke:#526B78;stroke-width:4;} .st79{filter:url(#Adobe_OpacityMaskFilter_39_);} .st80{mask:url(#mask-80);fill:#FFFFFF;} .st81{filter:url(#Adobe_OpacityMaskFilter_40_);} .st82{mask:url(#mask-82);} .st83{filter:url(#Adobe_OpacityMaskFilter_41_);} .st84{mask:url(#mask-84);fill:#2E3E47;} .st85{filter:url(#Adobe_OpacityMaskFilter_42_);} .st86{mask:url(#mask-86);fill:none;stroke:#526B78;stroke-width:4;} .st87{filter:url(#Adobe_OpacityMaskFilter_43_);} .st88{mask:url(#mask-88);fill:#FFFFFF;} .st89{filter:url(#Adobe_OpacityMaskFilter_44_);} .st90{mask:url(#mask-90);} .st91{filter:url(#Adobe_OpacityMaskFilter_45_);} .st92{mask:url(#mask-92);fill:#2E3E47;} .st93{filter:url(#Adobe_OpacityMaskFilter_46_);} .st94{mask:url(#mask-94);fill:none;stroke:#526B78;stroke-width:4;} .st95{filter:url(#Adobe_OpacityMaskFilter_47_);} .st96{mask:url(#mask-96);fill:#FFFFFF;} .st97{filter:url(#Adobe_OpacityMaskFilter_48_);} .st98{mask:url(#mask-98);} .st99{filter:url(#Adobe_OpacityMaskFilter_49_);} .st100{mask:url(#mask-100);fill:#2E3E47;} .st101{filter:url(#Adobe_OpacityMaskFilter_50_);} .st102{mask:url(#mask-102);fill:none;stroke:#526B78;stroke-width:4;} .st103{filter:url(#Adobe_OpacityMaskFilter_51_);} .st104{mask:url(#mask-104);fill:#FFFFFF;} .st105{fill:none;stroke:#BBDBEC;stroke-width:2;} .st106{fill:none;stroke:#7E8C94;stroke-width:4;stroke-dasharray:6;} .st107{fill:none;stroke:#7E8C94;stroke-width:4;stroke-dasharray:7;} .st108{filter:url(#Adobe_OpacityMaskFilter_52_);} .st109{mask:url(#mask-106);fill:#83A6B9;} .st110{filter:url(#Adobe_OpacityMaskFilter_53_);} .st111{mask:url(#mask-108);fill:#83A6B9;}</style><g id="Page-1"><g id="Group"><g id="Clipped" transform="translate(890.52 88.34)"><defs><filter id="Adobe_OpacityMaskFilter" width="100" height="99.3" x="448" y="-66" filterUnits="userSpaceOnUse"><feColorMatrix values="1 0 0 0 0 0 1 0 0 0 0 0 1 0 0 0 0 0 1 0"/></filter></defs><mask id="mask-2" width="100" height="99.3" x="448" y="-66" maskUnits="userSpaceOnUse"><g class="st0"><path id="path-1" d="M427-87h142V54.3H427V-87zm22 24c0-1.1.9-2 2-2h94c1.1 0 2 .9 2 2v93.3c0 1.1-.9 2-2 2h-94c-1.1 0-2-.9-2-2V-63zm-2 0v93.3c0 2.2 1.8 4 4 4h94c2.2 0 4-1.8 4-4V-63c0-2.2-1.8-4-4-4h-94c-2.2 0-4 1.8-4 4z" class="st1"/></g></mask><g class="st2"><g transform="translate(21 21)"><defs><filter id="Adobe_OpacityMaskFilter_1_" width="100" height="99.3" x="427" y="-87" filterUnits="userSpaceOnUse"><feColorMatrix values="1 0 0 0 0 0 1 0 0 0 0 0 1 0 0 0 0 0 1 0"/></filter></defs><mask id="mask-4" width="100" height="99.3" x="427" y="-87" maskUnits="userSpaceOnUse"><g class="st3"><path id="path-3" d="M427-84c0-1.7 1.3-3 3-3h94c1.7 0 3 1.3 3 3V9.3c0 1.7-1.3 3-3 3h-94c-1.7 0-3-1.3-3-3V-84z" class="st1"/></g></mask><path id="Shape_2_" d="M427-84c0-1.7 1.3-3 3-3h94c1.7 0 3 1.3 3 3V9.3c0 1.7-1.3 3-3 3h-94c-1.7 0-3-1.3-3-3V-84z" class="st4"/></g></g></g><g id="Clipped_1_" transform="translate(911.52 109.34)"><defs><filter id="Adobe_OpacityMaskFilter_2_" width="104" height="103.3" x="425" y="-89" filterUnits="userSpaceOnUse"><feColorMatrix values="1 0 0 0 0 0 1 0 0 0 0 0 1 0 0 0 0 0 1 0"/></filter></defs><mask id="mask-6" width="104" height="103.3" x="425" y="-89" maskUnits="userSpaceOnUse"><g class="st5"><path id="path-5" d="M427-84c0-1.7 1.3-3 3-3h94c1.7 0 3 1.3 3 3V9.3c0 1.7-1.3 3-3 3h-94c-1.7 0-3-1.3-3-3V-84z" class="st1"/></g></mask><path id="Shape_4_" d="M427-84c0-1.7 1.3-3 3-3h94c1.7 0 3 1.3 3 3V9.3c0 1.7-1.3 3-3 3h-94c-1.7 0-3-1.3-3-3V-84z" class="st6"/></g><g id="Clipped_2_" transform="translate(947.52 145.34)"><defs><filter id="Adobe_OpacityMaskFilter_3_" width="39.1" height="39.2" x="422" y="-91.1" filterUnits="userSpaceOnUse"><feColorMatrix values="1 0 0 0 0 0 1 0 0 0 0 0 1 0 0 0 0 0 1 0"/></filter></defs><mask id="mask-8" width="39.1" height="39.2" x="422" y="-91.1" maskUnits="userSpaceOnUse"><g class="st7"><path id="path-7" d="M427-65.3c0-.6.2-1.1.6-1.5.4-.4.9-.6 1.6-.6.7 0 1.2.2 1.6.6.4.4.6.9.6 1.5s-.2 1.1-.6 1.4c-.4.4-.9.6-1.6.6-.3 0-.6 0-.9-.1-.3-.1-.5-.2-.7-.4-.2-.2-.3-.4-.4-.6-.1-.3-.2-.6-.2-.9zm12.4-14.6V-62c0 1.7-.4 3-1.2 3.8-.8.9-2.1 1.3-3.7 1.3-.3 0-.7 0-1-.1-.3 0-.7-.1-1-.2V-60c.2 0 .4.1.7.1h.6c.6 0 1.1-.2 1.4-.5.3-.3.5-.9.5-1.6v-17.8l3.7-.1zm-4-4.2c0-.6.2-1 .5-1.4.4-.4.9-.6 1.5-.6s1.2.2 1.5.6c.4.4.6.8.6 1.4 0 .6-.2 1-.5 1.4-.4.4-.9.6-1.5.6-.7 0-1.2-.2-1.5-.6-.4-.4-.6-.9-.6-1.4zm17.1 16.2c0-.3 0-.5-.1-.7-.1-.2-.3-.4-.5-.6-.3-.2-.6-.4-1.1-.6-.5-.2-1.1-.3-1.8-.5-.9-.2-1.7-.4-2.4-.7-.7-.3-1.3-.6-1.9-1-.5-.4-.9-.8-1.2-1.4-.3-.5-.4-1.1-.4-1.8s.1-1.3.4-1.9c.3-.6.7-1.1 1.3-1.6.5-.5 1.2-.8 2-1.1.8-.3 1.7-.4 2.6-.4 1 0 1.9.1 2.8.4.8.3 1.5.6 2.1 1.1.6.5 1 1 1.3 1.7.3.6.5 1.3.5 2h-3.7c0-.3-.1-.6-.2-.9s-.3-.6-.5-.8c-.2-.2-.5-.4-.9-.6-.4-.1-.8-.2-1.2-.2-.5 0-.9.1-1.2.2-.3.1-.6.3-.9.4-.2.2-.4.4-.5.7-.1.2-.2.5-.2.8 0 .3 0 .5.1.7s.3.4.5.6c.3.2.6.3 1 .5.4.1 1 .3 1.6.4.9.2 1.8.4 2.5.7.8.3 1.4.6 1.9 1s.9.9 1.2 1.4c.3.5.4 1.2.4 1.9s-.2 1.4-.5 2-.8 1.1-1.3 1.6c-.6.4-1.3.8-2.1 1-.8.2-1.7.4-2.7.4-1.1 0-2.1-.2-3-.5-.9-.3-1.6-.7-2.2-1.2-.6-.5-1-1.1-1.3-1.8-.3-.7-.4-1.3-.4-2h3.6c0 .5.1.9.3 1.3.2.3.5.6.8.8.3.2.7.4 1.1.5.4.1.8.1 1.2.1 1 0 1.7-.2 2.2-.6.6-.3.9-.8.8-1.3z" class="st1"/></g></mask><path id="Shape_6_" d="M422-91.1h39.1v39.2H422z" class="st8"/></g><g id="Clipped_3_" transform="translate(1011.52 209.34)"><defs><filter id="Adobe_OpacityMaskFilter_4_" width="100" height="100" x="448" y="-66" filterUnits="userSpaceOnUse"><feColorMatrix values="1 0 0 0 0 0 1 0 0 0 0 0 1 0 0 0 0 0 1 0"/></filter></defs><mask id="mask-10" width="100" height="100" x="448" y="-66" maskUnits="userSpaceOnUse"><g class="st9"><path id="path-9" d="M427-87h142V55H427V-87zm22 24c0-1.1.9-2 2-2h94c1.1 0 2 .9 2 2v94c0 1.1-.9 2-2 2h-94c-1.1 0-2-.9-2-2v-94zm-2 0v94c0 2.2 1.8 4 4 4h94c2.2 0 4-1.8 4-4v-94c0-2.2-1.8-4-4-4h-94c-2.2 0-4 1.8-4 4z" class="st1"/></g></mask><g class="st10"><g transform="translate(21 21)"><defs><filter id="Adobe_OpacityMaskFilter_5_" width="100" height="100" x="427" y="-87" filterUnits="userSpaceOnUse"><feColorMatrix values="1 0 0 0 0 0 1 0 0 0 0 0 1 0 0 0 0 0 1 0"/></filter></defs><mask id="mask-12" width="100" height="100" x="427" y="-87" maskUnits="userSpaceOnUse"><g class="st11"><path id="path-11" d="M427-84c0-1.7 1.3-3 3-3h94c1.6 0 3 1.3 3 3v94c0 1.7-1.3 3-3 3h-94c-1.6 0-3-1.3-3-3v-94z" class="st1"/></g></mask><path id="Shape_9_" d="M427-84c0-1.7 1.3-3 3-3h94c1.6 0 3 1.3 3 3v94c0 1.7-1.3 3-3 3h-94c-1.6 0-3-1.3-3-3v-94z" class="st12"/></g></g></g><g id="Clipped_4_" transform="translate(1032.52 230.34)"><defs><filter id="Adobe_OpacityMaskFilter_6_" width="104" height="104" x="425" y="-89" filterUnits="userSpaceOnUse"><feColorMatrix values="1 0 0 0 0 0 1 0 0 0 0 0 1 0 0 0 0 0 1 0"/></filter></defs><mask id="mask-14" width="104" height="104" x="425" y="-89" maskUnits="userSpaceOnUse"><g class="st13"><path id="path-13" d="M427-84c0-1.7 1.3-3 3-3h94c1.6 0 3 1.3 3 3v94c0 1.7-1.3 3-3 3h-94c-1.6 0-3-1.3-3-3v-94z" class="st1"/></g></mask><path id="Shape_11_" d="M427-84c0-1.7 1.3-3 3-3h94c1.6 0 3 1.3 3 3v94c0 1.7-1.3 3-3 3h-94c-1.6 0-3-1.3-3-3v-94z" class="st14"/></g><g id="Clipped_5_" transform="translate(1054.52 274.34)"><defs><filter id="Adobe_OpacityMaskFilter_7_" width="67" height="33.1" x="422" y="-91.7" filterUnits="userSpaceOnUse"><feColorMatrix values="1 0 0 0 0 0 1 0 0 0 0 0 1 0 0 0 0 0 1 0"/></filter></defs><mask id="mask-16" width="67" height="33.1" x="422" y="-91.7" maskUnits="userSpaceOnUse"><g class="st15"><path id="path-15" d="M427-71.8c0-.6.2-1.1.6-1.5.4-.4.9-.6 1.6-.6s1.2.2 1.6.6c.4.4.6.9.6 1.5s-.2 1.1-.6 1.4c-.4.4-.9.6-1.6.6-.3 0-.6-.1-.9-.2-.3-.1-.5-.2-.7-.4-.2-.2-.3-.4-.4-.6-.1-.3-.2-.5-.2-.8zm22.9-6.2c0 1.2-.1 2.3-.4 3.3-.3 1-.7 1.9-1.2 2.6-.5.7-1.2 1.3-2 1.7-.8.4-1.7.6-2.7.6-.9 0-1.8-.2-2.5-.5s-1.3-.8-1.9-1.3v7.8h-3.7v-22.7h3.4l.1 1.7c.5-.6 1.1-1.1 1.9-1.5.7-.3 1.6-.5 2.5-.5 1 0 2 .2 2.8.6.8.4 1.5 1 2 1.7s1 1.6 1.2 2.6c.3 1 .4 2.2.4 3.4v.5h.1zm-3.7-.3c0-.7-.1-1.4-.2-2.1-.1-.6-.4-1.2-.7-1.7-.3-.5-.7-.9-1.2-1.1-.5-.3-1-.4-1.7-.4-.8 0-1.5.2-2 .5s-.9.8-1.2 1.4v7.3c.3.6.7 1 1.2 1.4.5.3 1.2.5 2 .5.7 0 1.2-.1 1.7-.4.5-.3.9-.7 1.1-1.2.3-.5.5-1.1.7-1.7.1-.7.2-1.3.2-2.1v-.4h.1zm10.2-8.1l.1 1.9c.6-.7 1.3-1.2 2.1-1.6.8-.4 1.7-.6 2.7-.6.8 0 1.5.1 2.1.3.7.2 1.2.6 1.7 1.1.4.5.8 1.1 1 1.9.2.8.4 1.7.4 2.8V-70h-3.7v-10.6c0-.6-.1-1-.2-1.4-.1-.4-.3-.7-.5-.9-.2-.2-.5-.4-.9-.5-.4-.1-.8-.1-1.2-.1-.8 0-1.4.2-2 .5-.6.4-1 .8-1.3 1.5V-70H453v-16.4h3.4zm13.2 8.1c0-1.2.1-2.4.5-3.4.3-1 .7-1.9 1.3-2.6.6-.7 1.3-1.3 2.1-1.7.8-.4 1.7-.6 2.7-.6 1 0 1.8.2 2.6.5.7.3 1.3.8 1.8 1.4l.2-1.7h3.3v15.9c0 1.1-.2 2.1-.5 2.9-.4.9-.9 1.6-1.5 2.2-.6.6-1.4 1-2.4 1.3-.9.3-1.9.5-3 .5-.5 0-1-.1-1.5-.2-.6-.1-1.1-.2-1.7-.5-.6-.2-1.1-.5-1.6-.8-.5-.3-.9-.8-1.3-1.3l1.7-2.2c.6.7 1.3 1.2 2 1.5.7.3 1.4.5 2.2.5 1.2 0 2.2-.3 2.9-1 .7-.7 1.1-1.6 1.1-2.9v-1.1c-.5.6-1.1 1-1.8 1.3-.7.3-1.5.4-2.4.4-1 0-1.9-.2-2.7-.6-.8-.4-1.5-1-2.1-1.7-.6-.7-1-1.6-1.3-2.6-.3-1-.5-2.1-.5-3.3v-.2h-.1zm3.7.3c0 .7.1 1.4.2 2 .1.6.4 1.2.7 1.7.3.5.7.9 1.2 1.1.5.3 1 .4 1.7.4.8 0 1.5-.2 2-.5s1-.8 1.3-1.4v-7.2c-.3-.6-.8-1-1.3-1.4-.5-.3-1.2-.5-2-.5-.7 0-1.2.1-1.7.4-.5.3-.9.7-1.2 1.1-.3.5-.5 1.1-.7 1.7-.2.7-.2 1.4-.2 2.1v.5z" class="st1"/></g></mask><path id="Shape_13_" d="M422-91.7h67v33.1h-67z" class="st16"/></g><g id="Clipped_6_" transform="translate(890.52 209.34)"><defs><filter id="Adobe_OpacityMaskFilter_8_" width="100" height="100" x="448" y="-66" filterUnits="userSpaceOnUse"><feColorMatrix values="1 0 0 0 0 0 1 0 0 0 0 0 1 0 0 0 0 0 1 0"/></filter></defs><mask id="mask-18" width="100" height="100" x="448" y="-66" maskUnits="userSpaceOnUse"><g class="st17"><path id="path-17" d="M427-87h142V55H427V-87zm22 24c0-1.1.9-2 2-2h94c1.1 0 2 .9 2 2v94c0 1.1-.9 2-2 2h-94c-1.1 0-2-.9-2-2v-94zm-2 0v94c0 2.2 1.8 4 4 4h94c2.2 0 4-1.8 4-4v-94c0-2.2-1.8-4-4-4h-94c-2.2 0-4 1.8-4 4z" class="st1"/></g></mask><g class="st18"><g transform="translate(21 21)"><defs><filter id="Adobe_OpacityMaskFilter_9_" width="100" height="100" x="427" y="-87" filterUnits="userSpaceOnUse"><feColorMatrix values="1 0 0 0 0 0 1 0 0 0 0 0 1 0 0 0 0 0 1 0"/></filter></defs><mask id="mask-20" width="100" height="100" x="427" y="-87" maskUnits="userSpaceOnUse"><g class="st19"><path id="path-19" d="M427-84c0-1.7 1.3-3 3-3h94c1.7 0 3 1.3 3 3v94c0 1.7-1.3 3-3 3h-94c-1.7 0-3-1.3-3-3v-94z" class="st1"/></g></mask><path id="Shape_16_" d="M427-84c0-1.7 1.3-3 3-3h94c1.7 0 3 1.3 3 3v94c0 1.7-1.3 3-3 3h-94c-1.7 0-3-1.3-3-3v-94z" class="st20"/></g></g></g><g id="Clipped_7_" transform="translate(911.52 230.34)"><defs><filter id="Adobe_OpacityMaskFilter_10_" width="104" height="104" x="425" y="-89" filterUnits="userSpaceOnUse"><feColorMatrix values="1 0 0 0 0 0 1 0 0 0 0 0 1 0 0 0 0 0 1 0"/></filter></defs><mask id="mask-22" width="104" height="104" x="425" y="-89" maskUnits="userSpaceOnUse"><g class="st21"><path id="path-21" d="M427-84c0-1.7 1.3-3 3-3h94c1.7 0 3 1.3 3 3v94c0 1.7-1.3 3-3 3h-94c-1.7 0-3-1.3-3-3v-94z" class="st1"/></g></mask><path id="Shape_18_" d="M427-84c0-1.7 1.3-3 3-3h94c1.7 0 3 1.3 3 3v94c0 1.7-1.3 3-3 3h-94c-1.7 0-3-1.3-3-3v-94z" class="st22"/></g><g id="Clipped_8_" transform="translate(937.52 268.34)"><defs><filter id="Adobe_OpacityMaskFilter_11_" width="57.5" height="39.2" x="422" y="-91.6" filterUnits="userSpaceOnUse"><feColorMatrix values="1 0 0 0 0 0 1 0 0 0 0 0 1 0 0 0 0 0 1 0"/></filter></defs><mask id="mask-24" width="57.5" height="39.2" x="422" y="-91.6" maskUnits="userSpaceOnUse"><g class="st23"><path id="path-23" d="M427-65.8c0-.6.2-1.1.6-1.5.4-.4.9-.6 1.6-.6.7 0 1.2.2 1.6.6.4.4.6.9.6 1.5s-.2 1.1-.6 1.4c-.4.4-.9.6-1.6.6-.3 0-.6-.1-.9-.2-.3-.1-.5-.2-.7-.4-.2-.2-.3-.4-.4-.6-.1-.3-.2-.5-.2-.8zm12.4-14.6v17.8c0 1.7-.4 3-1.2 3.8-.8.9-2.1 1.3-3.7 1.3-.3 0-.7 0-1-.1-.3 0-.7-.1-1-.2v-2.9c.2.1.4.1.7.1h.6c.6 0 1.1-.2 1.4-.5.3-.3.5-.9.5-1.6v-17.8l3.7.1zm-4-4.2c0-.6.2-1 .5-1.4.4-.4.9-.6 1.5-.6s1.2.2 1.5.6c.4.4.6.8.6 1.4 0 .5-.2 1-.5 1.4-.4.4-.9.6-1.5.6-.7 0-1.2-.2-1.5-.6-.4-.4-.6-.9-.6-1.4zM457.6-72c0 1.2-.1 2.3-.4 3.3-.3 1-.7 1.9-1.2 2.6-.5.7-1.2 1.3-2 1.7-.8.4-1.7.6-2.7.6-.9 0-1.8-.1-2.5-.4-.7-.3-1.3-.8-1.8-1.3v7.8h-3.7v-22.7h3.4l.1 1.7c.5-.6 1.2-1.1 1.9-1.5.7-.3 1.6-.5 2.5-.5 1 0 2 .2 2.8.6.8.4 1.5 1 2 1.7s.9 1.6 1.2 2.6c.3 1 .4 2.2.4 3.4v.4zm-3.6-.4c0-.7-.1-1.4-.2-2.1-.1-.7-.4-1.2-.7-1.7-.3-.5-.7-.9-1.2-1.1-.5-.3-1-.4-1.7-.4-.8 0-1.5.2-2 .5s-.9.8-1.2 1.4v7.3c.3.6.7 1 1.2 1.4.5.4 1.2.5 2 .5.7 0 1.2-.1 1.7-.4.5-.3.9-.7 1.2-1.2.3-.5.5-1.1.7-1.7.1-.7.2-1.3.2-2.1v-.4zm6.1.1c0-1.2.2-2.4.5-3.4s.7-1.9 1.3-2.6c.6-.7 1.3-1.3 2.1-1.7.8-.4 1.7-.6 2.7-.6 1 0 1.9.2 2.6.5.7.3 1.3.8 1.9 1.4l.2-1.7h3.3v15.9c0 1.1-.2 2.1-.5 2.9-.4.9-.9 1.6-1.5 2.2s-1.4 1-2.4 1.3c-.9.3-1.9.5-3 .5-.4 0-.9 0-1.5-.1s-1.1-.3-1.7-.5c-.6-.2-1.1-.5-1.6-.8-.5-.3-.9-.8-1.3-1.3l1.7-2.2c.6.7 1.3 1.2 2 1.5s1.5.5 2.2.5c1.2 0 2.2-.3 2.9-1 .7-.7 1.1-1.6 1.1-2.9v-1.1c-.5.6-1.1 1-1.8 1.3-.7.3-1.5.4-2.4.4-1 0-1.9-.2-2.7-.6-.8-.4-1.5-1-2.1-1.7-.6-.7-1-1.6-1.3-2.6-.3-1-.5-2.1-.5-3.3l-.2-.3zm3.7.3c0 .7.1 1.4.2 2.1.1.6.4 1.2.7 1.7.3.5.7.9 1.2 1.1.5.3 1 .4 1.7.4.8 0 1.5-.2 2-.5s.9-.8 1.3-1.4v-7.2c-.3-.6-.7-1-1.3-1.4-.5-.3-1.2-.5-2-.5-.7 0-1.2.1-1.7.4-.5.3-.9.7-1.2 1.2-.3.5-.5 1.1-.7 1.7-.2.7-.2 1.3-.2 2.1v.3z" class="st1"/></g></mask><path id="Shape_20_" d="M422-91.6h57.6v39.2H422z" class="st24"/></g><g id="Clipped_9_" transform="translate(1011.52 88.34)"><defs><filter id="Adobe_OpacityMaskFilter_12_" width="100" height="100" x="448" y="-66" filterUnits="userSpaceOnUse"><feColorMatrix values="1 0 0 0 0 0 1 0 0 0 0 0 1 0 0 0 0 0 1 0"/></filter></defs><mask id="mask-26" width="100" height="100" x="448" y="-66" maskUnits="userSpaceOnUse"><g class="st25"><path id="path-25" d="M427-87h142V55H427V-87zm22 24c0-1.1.9-2 2-2h94c1.1 0 2 .9 2 2v94c0 1.1-.9 2-2 2h-94c-1.1 0-2-.9-2-2v-94zm-2 0v94c0 2.2 1.8 4 4 4h94c2.2 0 4-1.8 4-4v-94c0-2.2-1.8-4-4-4h-94c-2.2 0-4 1.8-4 4z" class="st1"/></g></mask><g class="st26"><g transform="translate(21 21)"><defs><filter id="Adobe_OpacityMaskFilter_13_" width="100" height="100" x="427" y="-87" filterUnits="userSpaceOnUse"><feColorMatrix values="1 0 0 0 0 0 1 0 0 0 0 0 1 0 0 0 0 0 1 0"/></filter></defs><mask id="mask-28" width="100" height="100" x="427" y="-87" maskUnits="userSpaceOnUse"><g class="st27"><path id="path-27" d="M427-84c0-1.7 1.3-3 3-3h94c1.6 0 3 1.3 3 3v94c0 1.7-1.3 3-3 3h-94c-1.6 0-3-1.3-3-3v-94z" class="st1"/></g></mask><path id="Shape_23_" d="M427-84c0-1.7 1.3-3 3-3h94c1.6 0 3 1.3 3 3v94c0 1.7-1.3 3-3 3h-94c-1.6 0-3-1.3-3-3v-94z" class="st28"/></g></g></g><g id="Clipped_10_" transform="translate(1032.52 109.34)"><defs><filter id="Adobe_OpacityMaskFilter_14_" width="104" height="104" x="425" y="-89" filterUnits="userSpaceOnUse"><feColorMatrix values="1 0 0 0 0 0 1 0 0 0 0 0 1 0 0 0 0 0 1 0"/></filter></defs><mask id="mask-30" width="104" height="104" x="425" y="-89" maskUnits="userSpaceOnUse"><g class="st29"><path id="path-29" d="M427-84c0-1.7 1.3-3 3-3h94c1.6 0 3 1.3 3 3v94c0 1.7-1.3 3-3 3h-94c-1.6 0-3-1.3-3-3v-94z" class="st1"/></g></mask><path id="Shape_25_" d="M427-84c0-1.7 1.3-3 3-3h94c1.6 0 3 1.3 3 3v94c0 1.7-1.3 3-3 3h-94c-1.6 0-3-1.3-3-3v-94z" class="st30"/></g><g id="Clipped_11_" transform="translate(1053.52 153.34)"><defs><filter id="Adobe_OpacityMaskFilter_15_" width="63.5" height="27" x="422" y="-91.7" filterUnits="userSpaceOnUse"><feColorMatrix values="1 0 0 0 0 0 1 0 0 0 0 0 1 0 0 0 0 0 1 0"/></filter></defs><mask id="mask-32" width="63.5" height="27" x="422" y="-91.7" maskUnits="userSpaceOnUse"><g class="st31"><path id="path-31" d="M427-71.8c0-.6.2-1.1.6-1.5.4-.4.9-.6 1.6-.6s1.2.2 1.6.6c.4.4.6.9.6 1.5s-.2 1.1-.6 1.4c-.4.4-.9.6-1.6.6-.3 0-.6-.1-.9-.2-.3-.1-.5-.2-.7-.4-.2-.2-.3-.4-.4-.6-.1-.3-.2-.5-.2-.8zm15.3-.8c.4 0 .9-.1 1.2-.2.4-.1.7-.3 1-.6.3-.2.5-.5.7-.9.2-.3.3-.7.3-1.1h3.5c0 .8-.2 1.5-.6 2.2-.4.7-.8 1.3-1.4 1.8-.6.5-1.3.9-2.1 1.2-.8.3-1.7.4-2.6.4-1.3 0-2.4-.2-3.3-.7-.9-.4-1.7-1-2.3-1.8-.6-.7-1.1-1.6-1.4-2.6-.3-1-.5-2.1-.5-3.2v-.5c0-1.1.2-2.2.5-3.2s.8-1.9 1.4-2.6 1.4-1.3 2.3-1.8c.9-.4 2-.7 3.3-.7 1 0 1.9.2 2.7.5.8.3 1.5.7 2.1 1.3.6.5 1 1.2 1.4 1.9.3.8.5 1.6.5 2.5h-3.5c0-.4-.1-.8-.3-1.2s-.4-.7-.7-1-.6-.5-1-.7c-.4-.2-.8-.3-1.3-.3-.8 0-1.4.2-1.8.5-.5.3-.9.7-1.2 1.2-.3.5-.5 1.1-.6 1.7-.1.6-.2 1.3-.2 1.9v.5c0 .7.1 1.3.2 1.9.1.6.3 1.2.6 1.7s.7.9 1.2 1.2c.5.6 1.1.7 1.9.7zm18.7-1.8c0-.3 0-.5-.1-.7-.1-.2-.2-.4-.5-.6-.2-.2-.6-.4-1.1-.6-.5-.2-1.1-.3-1.8-.5-.9-.2-1.7-.4-2.4-.7-.7-.3-1.3-.6-1.8-1s-.9-.8-1.2-1.4c-.3-.5-.4-1.1-.4-1.8s.1-1.3.4-1.9c.3-.6.7-1.1 1.3-1.6.6-.4 1.2-.8 2-1.1.8-.3 1.7-.4 2.6-.4 1 0 1.9.1 2.8.4.8.3 1.5.6 2.1 1.1.6.5 1 1 1.3 1.7s.5 1.3.5 2.1H461c0-.3-.1-.6-.2-.9-.1-.3-.3-.6-.5-.8-.2-.2-.5-.4-.9-.6-.4-.1-.8-.2-1.2-.2-.5 0-.9.1-1.2.2s-.6.3-.9.5c-.2.2-.4.4-.5.7-.1.2-.2.5-.2.8 0 .3.1.5.1.7.1.2.3.4.5.6.3.2.6.3 1 .5s1 .3 1.6.4c.9.2 1.8.4 2.5.7.8.3 1.4.6 1.9 1s.9.9 1.2 1.4c.3.5.4 1.2.4 1.9s-.2 1.4-.5 2-.8 1.1-1.3 1.6c-.6.4-1.3.8-2.1 1-.8.2-1.7.4-2.7.4-1.1 0-2.1-.2-3-.5-.9-.3-1.6-.7-2.2-1.2-.6-.5-1-1.1-1.3-1.7-.3-.6-.5-1.3-.5-2h3.6c0 .5.1.9.4 1.3.2.3.5.6.8.8.3.2.7.4 1.1.5.4.1.8.1 1.2.1 1 0 1.7-.2 2.2-.5.5-.4.8-.9.8-1.4v-.3zm16 0c0-.3 0-.5-.1-.7-.1-.2-.2-.4-.5-.6-.2-.2-.6-.4-1.1-.6-.5-.2-1.1-.3-1.8-.5-.9-.2-1.7-.4-2.4-.7-.7-.3-1.3-.6-1.8-1s-.9-.8-1.2-1.4c-.3-.5-.4-1.1-.4-1.8s.1-1.3.4-1.9c.3-.6.7-1.1 1.3-1.6.6-.4 1.2-.8 2-1.1.8-.3 1.6-.4 2.6-.4s1.9.1 2.8.4c.8.3 1.5.6 2.1 1.1.6.5 1 1 1.3 1.7s.5 1.3.5 2.1H477c0-.3-.1-.6-.2-.9-.1-.3-.3-.6-.5-.8-.2-.2-.5-.4-.9-.6-.4-.1-.8-.2-1.2-.2-.5 0-.9.1-1.2.2s-.6.3-.9.5c-.2.2-.4.4-.5.7-.1.2-.2.5-.2.8 0 .3.1.5.1.7.1.2.3.4.5.6.3.2.6.3 1 .5s1 .3 1.6.4c.9.2 1.8.4 2.5.7.8.3 1.4.6 1.9 1s.9.9 1.2 1.4c.3.5.4 1.2.4 1.9s-.2 1.4-.5 2-.8 1.1-1.3 1.6c-.6.4-1.3.8-2.1 1-.8.2-1.7.4-2.7.4-1.1 0-2.1-.2-3-.5-.9-.3-1.6-.7-2.2-1.2-.6-.5-1-1.1-1.3-1.7-.3-.6-.5-1.3-.5-2h3.6c0 .5.1.9.4 1.3.2.3.5.6.8.8.3.2.7.4 1.1.5.4.1.8.1 1.2.1 1 0 1.7-.2 2.2-.5.5-.4.8-.9.8-1.4v-.3z" class="st1"/></g></mask><path id="Shape_27_" d="M422-91.7h63.6v27H422z" class="st32"/></g><g id="Clipped_12_" transform="translate(2.52 .34)"><defs><filter id="Adobe_OpacityMaskFilter_16_" width="71" height="67" x="448" y="-66" filterUnits="userSpaceOnUse"><feColorMatrix values="1 0 0 0 0 0 1 0 0 0 0 0 1 0 0 0 0 0 1 0"/></filter></defs><mask id="mask-34" width="71" height="67" x="448" y="-66" maskUnits="userSpaceOnUse"><g class="st33"><path id="path-33" d="M427-87h113V22H427V-87zm22 24c0-1.1.9-2 2-2h65c1.1 0 2 .9 2 2v61c0 1.1-.9 2-2 2h-65c-1.1 0-2-.9-2-2v-61zm-2 0v61c0 2.2 1.8 4 4 4h65c2.2 0 4-1.8 4-4v-61c0-2.2-1.8-4-4-4h-65c-2.2 0-4 1.8-4 4z" class="st1"/></g></mask><g class="st34"><g transform="translate(21 21)"><defs><filter id="Adobe_OpacityMaskFilter_17_" width="71" height="67" x="427" y="-87" filterUnits="userSpaceOnUse"><feColorMatrix values="1 0 0 0 0 0 1 0 0 0 0 0 1 0 0 0 0 0 1 0"/></filter></defs><mask id="mask-36" width="71" height="67" x="427" y="-87" maskUnits="userSpaceOnUse"><g class="st35"><path id="path-35" d="M427-84c0-1.7 1.3-3 3-3h65c1.7 0 3 1.3 3 3v61c0 1.7-1.3 3-3 3h-65c-1.7 0-3-1.3-3-3v-61z" class="st1"/></g></mask><path id="Shape_30_" d="M427-84c0-1.7 1.3-3 3-3h65c1.7 0 3 1.3 3 3v61c0 1.7-1.3 3-3 3h-65c-1.7 0-3-1.3-3-3v-61z" class="st36"/></g></g></g><g id="Clipped_13_" transform="translate(23.52 21.34)"><defs><filter id="Adobe_OpacityMaskFilter_18_" width="75" height="71" x="425" y="-89" filterUnits="userSpaceOnUse"><feColorMatrix values="1 0 0 0 0 0 1 0 0 0 0 0 1 0 0 0 0 0 1 0"/></filter></defs><mask id="mask-38" width="75" height="71" x="425" y="-89" maskUnits="userSpaceOnUse"><g class="st37"><path id="path-37" d="M427-84c0-1.7 1.3-3 3-3h65c1.7 0 3 1.3 3 3v61c0 1.7-1.3 3-3 3h-65c-1.7 0-3-1.3-3-3v-61z" class="st1"/></g></mask><path id="Shape_32_" d="M427-84c0-1.7 1.3-3 3-3h65c1.7 0 3 1.3 3 3v61c0 1.7-1.3 3-3 3h-65c-1.7 0-3-1.3-3-3v-61z" class="st38"/></g><g id="Clipped_14_" transform="translate(48.52 45.34)"><defs><filter id="Adobe_OpacityMaskFilter_19_" width="30.6" height="30.7" x="422.5" y="-91" filterUnits="userSpaceOnUse"><feColorMatrix values="1 0 0 0 0 0 1 0 0 0 0 0 1 0 0 0 0 0 1 0"/></filter></defs><mask id="mask-40" width="30.6" height="30.7" x="422.5" y="-91" maskUnits="userSpaceOnUse"><g class="st39"><path id="path-39" d="M427.5-71.3c0-.4.1-.8.4-1 .3-.3.6-.4 1.1-.4.5 0 .9.1 1.1.4.3.3.4.6.4 1s-.1.7-.4 1c-.3.3-.6.4-1.1.4-.2 0-.4 0-.6-.1-.2-.1-.3-.2-.5-.3-.1-.1-.2-.3-.3-.4s-.1-.4-.1-.6zm8.7-10.3V-69c0 1.2-.3 2.1-.9 2.7-.6.6-1.5.9-2.6.9h-.7c-.2 0-.5-.1-.7-.1v-2.1c.1 0 .3.1.5.1h.4c.4 0 .8-.1 1-.3.2-.2.3-.6.3-1.2v-12.7l2.7.1zm-2.8-3c0-.4.1-.7.4-1 .2-.3.6-.4 1.1-.4.5 0 .8.1 1.1.4s.4.6.4 1-.1.7-.4 1c-.3.3-.6.4-1.1.4-.5 0-.8-.1-1.1-.4-.3-.3-.5-.7-.4-1zm12.1 11.4c0-.2 0-.4-.1-.5-.1-.2-.2-.3-.4-.5-.2-.1-.4-.3-.8-.4-.3-.1-.8-.2-1.3-.3-.6-.1-1.2-.3-1.7-.5s-.9-.4-1.3-.7c-.4-.3-.7-.6-.9-1-.2-.4-.3-.8-.3-1.3s.1-.9.3-1.3c.2-.4.5-.8.9-1.1.4-.3.9-.6 1.4-.8.6-.2 1.2-.3 1.9-.3s1.4.1 2 .3c.6.2 1.1.5 1.5.8.4.3.7.7.9 1.2.2.4.3.9.3 1.5h-2.6c0-.2 0-.4-.1-.7-.1-.2-.2-.4-.4-.6-.2-.2-.4-.3-.6-.4-.2-.1-.5-.1-.9-.1-.3 0-.6 0-.9.1l-.6.3c-.2.1-.3.3-.4.5-.1.2-.1.4-.1.6s0 .4.1.5c.1.2.2.3.4.4.2.1.4.2.7.3.3.1.7.2 1.2.3.7.1 1.3.3 1.8.5s1 .4 1.4.7c.4.3.7.6.9 1 .2.4.3.8.3 1.3s-.1 1-.3 1.4-.5.8-.9 1.1c-.4.3-.9.5-1.5.7-.6.2-1.2.3-1.9.3-.8 0-1.5-.1-2.1-.3-.6-.2-1.1-.5-1.5-.9-.4-.4-.7-.8-.9-1.2s-.3-.9-.3-1.4h2.5c0 .4.1.7.2.9.1.2.3.4.5.6.2.2.5.3.8.3.3.1.6.1.9.1.7 0 1.2-.1 1.6-.4.1-.1.3-.5.3-1z" class="st1"/></g></mask><path id="Shape_34_" d="M422.5-91h30.6v30.7h-30.6z" class="st40"/></g><g id="Clipped_15_" transform="translate(113.52 54.34)"><defs><filter id="Adobe_OpacityMaskFilter_20_" width="71" height="67" x="448" y="-66" filterUnits="userSpaceOnUse"><feColorMatrix values="1 0 0 0 0 0 1 0 0 0 0 0 1 0 0 0 0 0 1 0"/></filter></defs><mask id="mask-42" width="71" height="67" x="448" y="-66" maskUnits="userSpaceOnUse"><g class="st41"><path id="path-41" d="M427-87h113V22H427V-87zm22 24c0-1.1.9-2 2-2h65c1.1 0 2 .9 2 2v61c0 1.1-.9 2-2 2h-65c-1.1 0-2-.9-2-2v-61zm-2 0v61c0 2.2 1.8 4 4 4h65c2.2 0 4-1.8 4-4v-61c0-2.2-1.8-4-4-4h-65c-2.2 0-4 1.8-4 4z" class="st1"/></g></mask><g class="st42"><g transform="translate(21 21)"><defs><filter id="Adobe_OpacityMaskFilter_21_" width="71" height="67" x="427" y="-87" filterUnits="userSpaceOnUse"><feColorMatrix values="1 0 0 0 0 0 1 0 0 0 0 0 1 0 0 0 0 0 1 0"/></filter></defs><mask id="mask-44" width="71" height="67" x="427" y="-87" maskUnits="userSpaceOnUse"><g class="st43"><path id="path-43" d="M427-84c0-1.7 1.3-3 3-3h65c1.7 0 3 1.3 3 3v61c0 1.7-1.3 3-3 3h-65c-1.7 0-3-1.3-3-3v-61z" class="st1"/></g></mask><path id="Shape_37_" d="M427-84c0-1.7 1.3-3 3-3h65c1.7 0 3 1.3 3 3v61c0 1.7-1.3 3-3 3h-65c-1.7 0-3-1.3-3-3v-61z" class="st44"/></g></g></g><g id="Clipped_16_" transform="translate(134.52 75.34)"><defs><filter id="Adobe_OpacityMaskFilter_22_" width="75" height="71" x="425" y="-89" filterUnits="userSpaceOnUse"><feColorMatrix values="1 0 0 0 0 0 1 0 0 0 0 0 1 0 0 0 0 0 1 0"/></filter></defs><mask id="mask-46" width="75" height="71" x="425" y="-89" maskUnits="userSpaceOnUse"><g class="st45"><path id="path-45" d="M427-84c0-1.7 1.3-3 3-3h65c1.7 0 3 1.3 3 3v61c0 1.7-1.3 3-3 3h-65c-1.7 0-3-1.3-3-3v-61z" class="st1"/></g></mask><path id="Shape_39_" d="M427-84c0-1.7 1.3-3 3-3h65c1.7 0 3 1.3 3 3v61c0 1.7-1.3 3-3 3h-65c-1.7 0-3-1.3-3-3v-61z" class="st46"/></g><g id="Clipped_17_" transform="translate(159.52 99.34)"><defs><filter id="Adobe_OpacityMaskFilter_23_" width="30.6" height="30.7" x="422.5" y="-91" filterUnits="userSpaceOnUse"><feColorMatrix values="1 0 0 0 0 0 1 0 0 0 0 0 1 0 0 0 0 0 1 0"/></filter></defs><mask id="mask-48" width="30.6" height="30.7" x="422.5" y="-91" maskUnits="userSpaceOnUse"><g class="st47"><path id="path-47" d="M427.5-71.3c0-.4.1-.8.4-1 .3-.3.6-.4 1.1-.4.5 0 .9.1 1.1.4.3.3.4.6.4 1s-.1.7-.4 1c-.3.3-.6.4-1.1.4-.2 0-.4 0-.6-.1-.2-.1-.3-.2-.5-.3-.1-.1-.2-.3-.3-.4s-.1-.4-.1-.6zm8.7-10.3V-69c0 1.2-.3 2.1-.9 2.7-.6.6-1.5.9-2.6.9h-.7c-.2 0-.5-.1-.7-.1v-2.1c.1 0 .3.1.5.1h.4c.4 0 .8-.1 1-.3.2-.2.3-.6.3-1.2v-12.7l2.7.1zm-2.8-3c0-.4.1-.7.4-1 .2-.3.6-.4 1.1-.4.5 0 .8.1 1.1.4s.4.6.4 1-.1.7-.4 1c-.3.3-.6.4-1.1.4-.5 0-.8-.1-1.1-.4-.3-.3-.5-.7-.4-1zm12.1 11.4c0-.2 0-.4-.1-.5-.1-.2-.2-.3-.4-.5-.2-.1-.4-.3-.8-.4-.3-.1-.8-.2-1.3-.3-.6-.1-1.2-.3-1.7-.5s-1-.4-1.3-.7-.6-.6-.9-1c-.2-.4-.3-.8-.3-1.3s.1-.9.3-1.3c.2-.4.5-.8.9-1.1.4-.3.9-.6 1.4-.8.5-.2 1.2-.3 1.9-.3s1.4.1 2 .3c.6.2 1.1.5 1.5.8.4.3.7.7.9 1.2.2.4.3.9.3 1.5h-2.6c0-.2 0-.4-.1-.7-.1-.2-.2-.4-.4-.6-.2-.2-.4-.3-.6-.4-.3-.1-.5-.1-.9-.1-.3 0-.6 0-.9.1l-.6.3c-.2.1-.3.3-.4.5-.1.2-.1.4-.1.6s0 .4.1.5c.1.2.2.3.4.4.2.1.4.2.7.3.3.1.7.2 1.2.3.7.1 1.3.3 1.8.5s1 .4 1.4.7.6.6.8 1c.2.4.3.8.3 1.3s-.1 1-.3 1.4c-.2.4-.5.8-1 1.1-.4.3-.9.5-1.5.7-.6.2-1.2.3-1.9.3-.8 0-1.5-.1-2.1-.3-.6-.2-1.1-.5-1.5-.9-.4-.4-.7-.8-.9-1.2s-.3-.9-.3-1.4h2.5c0 .4.1.7.2.9.1.2.3.4.5.6.2.2.5.3.8.3s.6.1.9.1c.7 0 1.2-.1 1.6-.4.2-.1.4-.5.5-1z" class="st1"/></g></mask><path id="Shape_41_" d="M422.5-91h30.6v30.7h-30.6z" class="st48"/></g><g id="Clipped_18_" transform="translate(113.52 167.34)"><defs><filter id="Adobe_OpacityMaskFilter_24_" width="71" height="67" x="448" y="-66" filterUnits="userSpaceOnUse"><feColorMatrix values="1 0 0 0 0 0 1 0 0 0 0 0 1 0 0 0 0 0 1 0"/></filter></defs><mask id="mask-50" width="71" height="67" x="448" y="-66" maskUnits="userSpaceOnUse"><g class="st49"><path id="path-49" d="M427-87h113V22H427V-87zm22 24c0-1.1.9-2 2-2h65c1.1 0 2 .9 2 2v61c0 1.1-.9 2-2 2h-65c-1.1 0-2-.9-2-2v-61zm-2 0v61c0 2.2 1.8 4 4 4h65c2.2 0 4-1.8 4-4v-61c0-2.2-1.8-4-4-4h-65c-2.2 0-4 1.8-4 4z" class="st1"/></g></mask><g class="st50"><g transform="translate(21 21)"><defs><filter id="Adobe_OpacityMaskFilter_25_" width="71" height="67" x="427" y="-87" filterUnits="userSpaceOnUse"><feColorMatrix values="1 0 0 0 0 0 1 0 0 0 0 0 1 0 0 0 0 0 1 0"/></filter></defs><mask id="mask-52" width="71" height="67" x="427" y="-87" maskUnits="userSpaceOnUse"><g class="st51"><path id="path-51" d="M427-84c0-1.7 1.3-3 3-3h65c1.7 0 3 1.3 3 3v61c0 1.7-1.3 3-3 3h-65c-1.7 0-3-1.3-3-3v-61z" class="st1"/></g></mask><path id="Shape_44_" d="M427-84c0-1.7 1.3-3 3-3h65c1.7 0 3 1.3 3 3v61c0 1.7-1.3 3-3 3h-65c-1.7 0-3-1.3-3-3v-61z" class="st52"/></g></g></g><g id="Clipped_19_" transform="translate(134.52 188.34)"><defs><filter id="Adobe_OpacityMaskFilter_26_" width="75" height="71" x="425" y="-89" filterUnits="userSpaceOnUse"><feColorMatrix values="1 0 0 0 0 0 1 0 0 0 0 0 1 0 0 0 0 0 1 0"/></filter></defs><mask id="mask-54" width="75" height="71" x="425" y="-89" maskUnits="userSpaceOnUse"><g class="st53"><path id="path-53" d="M427-84c0-1.7 1.3-3 3-3h65c1.7 0 3 1.3 3 3v61c0 1.7-1.3 3-3 3h-65c-1.7 0-3-1.3-3-3v-61z" class="st1"/></g></mask><path id="Shape_46_" d="M427-84c0-1.7 1.3-3 3-3h65c1.7 0 3 1.3 3 3v61c0 1.7-1.3 3-3 3h-65c-1.7 0-3-1.3-3-3v-61z" class="st54"/></g><g id="Clipped_21_" transform="translate(1.52 334.34)"><defs><filter id="Adobe_OpacityMaskFilter_27_" width="67" height="67" x="448" y="-66" filterUnits="userSpaceOnUse"><feColorMatrix values="1 0 0 0 0 0 1 0 0 0 0 0 1 0 0 0 0 0 1 0"/></filter></defs><mask id="mask-58" width="67" height="67" x="448" y="-66" maskUnits="userSpaceOnUse"><g class="st55"><path id="path-57" d="M427-87h109V22H427V-87zm22 24c0-1.1.9-2 2-2h61c1.1 0 2 .9 2 2v61c0 1.1-.9 2-2 2h-61c-1.1 0-2-.9-2-2v-61zm-2 0v61c0 2.2 1.8 4 4 4h61c2.2 0 4-1.8 4-4v-61c0-2.2-1.8-4-4-4h-61c-2.2 0-4 1.8-4 4z" class="st1"/></g></mask><g class="st56"><g transform="translate(21 21)"><defs><filter id="Adobe_OpacityMaskFilter_28_" width="67" height="67" x="427" y="-87" filterUnits="userSpaceOnUse"><feColorMatrix values="1 0 0 0 0 0 1 0 0 0 0 0 1 0 0 0 0 0 1 0"/></filter></defs><mask id="mask-60" width="67" height="67" x="427" y="-87" maskUnits="userSpaceOnUse"><g class="st57"><path id="path-59" d="M427-84c0-1.7 1.3-3 3-3h61c1.7 0 3 1.3 3 3v61c0 1.7-1.3 3-3 3h-61c-1.7 0-3-1.3-3-3v-61z" class="st1"/></g></mask><path id="Shape_51_" d="M427-84c0-1.7 1.3-3 3-3h61c1.7 0 3 1.3 3 3v61c0 1.7-1.3 3-3 3h-61c-1.7 0-3-1.3-3-3v-61z" class="st58"/></g></g></g><g id="Clipped_22_" transform="translate(22.52 355.34)"><defs><filter id="Adobe_OpacityMaskFilter_29_" width="71" height="71" x="425" y="-89" filterUnits="userSpaceOnUse"><feColorMatrix values="1 0 0 0 0 0 1 0 0 0 0 0 1 0 0 0 0 0 1 0"/></filter></defs><mask id="mask-62" width="71" height="71" x="425" y="-89" maskUnits="userSpaceOnUse"><g class="st59"><path id="path-61" d="M427-84c0-1.7 1.3-3 3-3h61c1.7 0 3 1.3 3 3v61c0 1.7-1.3 3-3 3h-61c-1.7 0-3-1.3-3-3v-61z" class="st1"/></g></mask><path id="Shape_53_" d="M427-84c0-1.7 1.3-3 3-3h61c1.7 0 3 1.3 3 3v61c0 1.7-1.3 3-3 3h-61c-1.7 0-3-1.3-3-3v-61z" class="st60"/></g><g id="Clipped_23_" transform="translate(30.52 384.34)"><defs><filter id="Adobe_OpacityMaskFilter_30_" width="59.7" height="22.1" x="422.5" y="-91.8" filterUnits="userSpaceOnUse"><feColorMatrix values="1 0 0 0 0 0 1 0 0 0 0 0 1 0 0 0 0 0 1 0"/></filter></defs><mask id="mask-64" width="59.7" height="22.1" x="422.5" y="-91.8" maskUnits="userSpaceOnUse"><g class="st61"><path id="path-63" d="M427.5-76.3c0-.4.1-.8.4-1 .3-.3.6-.4 1.1-.4.5 0 .9.1 1.1.4.3.3.4.6.4 1s-.1.7-.4 1c-.3.3-.6.4-1.1.4-.2 0-.4 0-.6-.1-.2-.1-.3-.2-.5-.3-.1-.1-.2-.3-.3-.4s-.1-.4-.1-.6zm12.5-1.9c0-.2 0-.4-.1-.5-.1-.2-.2-.3-.4-.5-.2-.1-.4-.3-.8-.4-.3-.1-.8-.2-1.3-.3-.6-.1-1.2-.3-1.7-.5s-1-.4-1.3-.7c-.4-.3-.6-.6-.9-1-.2-.4-.3-.8-.3-1.3s.1-.9.3-1.3c.2-.4.5-.8.9-1.1.4-.3.9-.6 1.4-.8.6-.2 1.2-.3 1.9-.3s1.4.1 2 .3c.6.2 1.1.5 1.5.8.4.3.7.7.9 1.2.2.4.3.9.3 1.5h-2.6c0-.2-.1-.4-.1-.7-.1-.2-.2-.4-.4-.6-.2-.2-.4-.3-.6-.4-.2-.1-.6-.1-.9-.1-.3 0-.6 0-.9.1l-.6.3c-.2.1-.3.3-.4.5-.1.2-.1.4-.1.6s0 .4.1.5c.1.2.2.3.4.4.2.1.4.2.7.3.3.1.7.2 1.2.3.7.2 1.3.3 1.8.5s1 .4 1.4.7c.4.3.6.6.8 1s.3.8.3 1.3-.1 1-.3 1.4-.5.8-.9 1.1c-.4.3-.9.6-1.5.7-.6.2-1.2.3-1.9.3-.8 0-1.5-.1-2.1-.3-.6-.2-1.1-.5-1.5-.9-.4-.4-.7-.8-.9-1.2-.2-.5-.3-.9-.3-1.4h2.5c0 .4.1.7.2.9.1.2.3.4.5.6s.5.3.8.3c.3.1.6.1.9.1.7 0 1.2-.1 1.6-.4.2-.1.3-.5.4-1zm11.8 3.2c-.1-.1-.1-.3-.2-.5 0-.2-.1-.4-.1-.6-.2.2-.4.3-.6.5-.2.2-.4.3-.7.4-.3.1-.5.2-.8.3-.3.1-.6.1-1 .1-.6 0-1.1-.1-1.6-.3-.5-.2-.9-.4-1.3-.7-.3-.3-.6-.7-.8-1.1-.2-.4-.3-.9-.3-1.4 0-.6.1-1.2.4-1.7.2-.5.6-.9 1-1.2.4-.3 1-.6 1.7-.7.7-.2 1.4-.2 2.2-.2h1.6v-.8c0-.6-.2-1.1-.5-1.4-.3-.4-.9-.5-1.5-.5-.3 0-.6 0-.8.1s-.5.2-.6.3c-.2.1-.3.3-.4.5-.1.2-.1.4-.1.6h-2.6c0-.5.1-.9.3-1.3.2-.4.6-.8 1-1.1.4-.3.9-.6 1.5-.8s1.2-.3 2-.3c.7 0 1.3.1 1.8.3.5.2 1 .4 1.4.8.4.3.7.8.9 1.2.2.5.3 1.1.3 1.8v5.2c0 1 .1 1.9.4 2.5v.2l-2.6-.2zm-2.9-1.9c.3 0 .6 0 .8-.1.3-.1.5-.2.7-.3.2-.1.4-.3.6-.4.1-.2.3-.3.4-.5v-2.2H450c-1 0-1.7.2-2.2.5-.5.3-.7.8-.7 1.4 0 .2 0 .5.1.7.1.2.2.4.4.5.1.1.4.3.6.3.1.1.4.1.7.1zm14.4-1.3c0-.2 0-.4-.1-.5-.1-.2-.2-.3-.4-.5-.2-.1-.4-.3-.8-.4-.3-.1-.8-.2-1.3-.3-.6-.1-1.2-.3-1.7-.5s-1-.4-1.3-.7c-.4-.3-.6-.6-.9-1-.2-.4-.3-.8-.3-1.3s.1-.9.3-1.3c.2-.4.5-.8.9-1.1.4-.3.9-.6 1.4-.8.6-.2 1.2-.3 1.9-.3s1.4.1 2 .3c.6.2 1.1.5 1.5.8.4.3.7.7.9 1.2.2.4.3.9.3 1.5h-2.6c0-.2 0-.4-.1-.7-.1-.2-.2-.4-.4-.6-.2-.2-.4-.3-.6-.4-.3-.1-.5-.1-.9-.1-.3 0-.6 0-.9.1l-.6.3c-.2.1-.3.3-.4.5-.1.2-.1.4-.1.6s0 .4.1.5c.1.2.2.3.4.4.2.1.4.2.7.3.3.1.7.2 1.2.3.7.2 1.3.3 1.8.5s1 .4 1.4.7c.4.3.6.6.8 1s.3.8.3 1.3-.1 1-.3 1.4-.5.8-.9 1.1c-.4.3-.9.6-1.5.7-.6.2-1.2.3-1.9.3-.8 0-1.5-.1-2.1-.3-.6-.2-1.1-.5-1.5-.9-.4-.4-.7-.8-.9-1.2-.2-.5-.3-.9-.3-1.4h2.5c0 .4.1.7.2.9.1.2.3.4.5.6.2.2.5.3.8.3.3.1.6.1.9.1.7 0 1.2-.1 1.6-.4.1-.1.3-.5.4-1zm11.3 0c0-.2 0-.4-.1-.5-.1-.2-.2-.3-.4-.5-.2-.1-.4-.3-.8-.4-.3-.1-.8-.2-1.3-.3-.6-.1-1.2-.3-1.7-.5s-1-.4-1.3-.7c-.4-.3-.6-.6-.9-1-.2-.4-.3-.8-.3-1.3s.1-.9.3-1.3c.2-.4.5-.8.9-1.1.4-.3.9-.6 1.4-.8.6-.2 1.2-.3 1.9-.3s1.4.1 2 .3c.6.2 1.1.5 1.5.8.4.3.7.7.9 1.2.2.4.3.9.3 1.5h-2.6c0-.2 0-.4-.1-.7-.1-.2-.2-.4-.4-.6-.2-.2-.4-.3-.6-.4-.3-.1-.6-.1-.9-.1-.3 0-.6 0-.9.1l-.6.3c-.2.1-.3.3-.4.5-.1.2-.1.4-.1.6s0 .4.1.5c.1.2.2.3.4.4.2.1.4.2.7.3.3.1.7.2 1.2.3.7.2 1.3.3 1.8.5s1 .4 1.4.7c.4.3.6.6.8 1s.3.8.3 1.3-.1 1-.3 1.4c-.2.4-.5.8-1 1.1-.4.3-.9.6-1.5.7-.6.2-1.2.3-1.9.3-.8 0-1.5-.1-2.1-.3-.6-.2-1.1-.5-1.5-.9-.4-.4-.7-.8-.9-1.2-.2-.5-.3-.9-.3-1.4h2.5c0 .4.1.7.2.9.1.2.3.4.6.6.2.2.5.3.8.3.3.1.6.1.9.1.7 0 1.2-.1 1.6-.4.2-.1.4-.5.4-1z" class="st1"/></g></mask><path id="Shape_55_" d="M422.5-91.8h59.7v22h-59.7z" class="st62"/></g><g id="Clipped_24_" transform="translate(113.52 280.34)"><defs><filter id="Adobe_OpacityMaskFilter_31_" width="67" height="67" x="448" y="-66" filterUnits="userSpaceOnUse"><feColorMatrix values="1 0 0 0 0 0 1 0 0 0 0 0 1 0 0 0 0 0 1 0"/></filter></defs><mask id="mask-66" width="67" height="67" x="448" y="-66" maskUnits="userSpaceOnUse"><g class="st63"><path id="path-65" d="M427-87h109V22H427V-87zm22 24c0-1.1.9-2 2-2h61c1.1 0 2 .9 2 2v61c0 1.1-.9 2-2 2h-61c-1.1 0-2-.9-2-2v-61zm-2 0v61c0 2.2 1.8 4 4 4h61c2.2 0 4-1.8 4-4v-61c0-2.2-1.8-4-4-4h-61c-2.2 0-4 1.8-4 4z" class="st1"/></g></mask><g class="st64"><g transform="translate(21 21)"><defs><filter id="Adobe_OpacityMaskFilter_32_" width="67" height="67" x="427" y="-87" filterUnits="userSpaceOnUse"><feColorMatrix values="1 0 0 0 0 0 1 0 0 0 0 0 1 0 0 0 0 0 1 0"/></filter></defs><mask id="mask-68" width="67" height="67" x="427" y="-87" maskUnits="userSpaceOnUse"><g class="st65"><path id="path-67" d="M427-84c0-1.7 1.3-3 3-3h61c1.7 0 3 1.3 3 3v61c0 1.7-1.3 3-3 3h-61c-1.7 0-3-1.3-3-3v-61z" class="st1"/></g></mask><path id="Shape_58_" d="M427-84c0-1.7 1.3-3 3-3h61c1.7 0 3 1.3 3 3v61c0 1.7-1.3 3-3 3h-61c-1.7 0-3-1.3-3-3v-61z" class="st66"/></g></g></g><g id="Clipped_25_" transform="translate(134.52 301.34)"><defs><filter id="Adobe_OpacityMaskFilter_33_" width="71" height="71" x="425" y="-89" filterUnits="userSpaceOnUse"><feColorMatrix values="1 0 0 0 0 0 1 0 0 0 0 0 1 0 0 0 0 0 1 0"/></filter></defs><mask id="mask-70" width="71" height="71" x="425" y="-89" maskUnits="userSpaceOnUse"><g class="st67"><path id="path-69" d="M427-84c0-1.7 1.3-3 3-3h61c1.7 0 3 1.3 3 3v61c0 1.7-1.3 3-3 3h-61c-1.7 0-3-1.3-3-3v-61z" class="st1"/></g></mask><path id="Shape_60_" d="M427-84c0-1.7 1.3-3 3-3h61c1.7 0 3 1.3 3 3v61c0 1.7-1.3 3-3 3h-61c-1.7 0-3-1.3-3-3v-61z" class="st68"/></g><g id="Clipped_26_" transform="translate(142.52 330.34)"><defs><filter id="Adobe_OpacityMaskFilter_34_" width="59.7" height="22.1" x="422.5" y="-91.8" filterUnits="userSpaceOnUse"><feColorMatrix values="1 0 0 0 0 0 1 0 0 0 0 0 1 0 0 0 0 0 1 0"/></filter></defs><mask id="mask-72" width="59.7" height="22.1" x="422.5" y="-91.8" maskUnits="userSpaceOnUse"><g class="st69"><path id="path-71" d="M427.5-76.3c0-.4.1-.8.4-1 .3-.3.6-.4 1.1-.4.5 0 .9.1 1.1.4.3.3.4.6.4 1s-.1.7-.4 1c-.3.3-.6.4-1.1.4-.2 0-.4 0-.6-.1-.2-.1-.3-.2-.5-.3-.1-.1-.2-.3-.3-.4s-.1-.4-.1-.6zm12.5-1.9c0-.2 0-.4-.1-.5-.1-.2-.2-.3-.4-.5-.2-.1-.4-.3-.8-.4-.3-.1-.8-.2-1.3-.3-.6-.1-1.2-.3-1.7-.5s-1-.4-1.3-.7-.6-.6-.9-1c-.2-.4-.3-.8-.3-1.3s.1-.9.3-1.3c.2-.4.5-.8.9-1.1.4-.3.9-.6 1.4-.8.6-.2 1.2-.3 1.9-.3s1.4.1 2 .3c.6.2 1.1.5 1.5.8.4.3.7.7.9 1.2.2.4.3.9.3 1.5h-2.6c0-.2 0-.4-.1-.7-.1-.2-.2-.4-.4-.6-.2-.2-.4-.3-.6-.4-.2-.1-.5-.1-.9-.1-.3 0-.6 0-.9.1-.2.1-.5.2-.6.3-.2.1-.3.3-.4.5-.1.2-.1.4-.1.6s0 .4.1.5c.1.2.2.3.4.4s.4.2.7.3c.3.1.7.2 1.2.3.7.1 1.3.3 1.8.5s1 .4 1.3.7c.4.3.7.6.8 1 .2.4.3.8.3 1.3s-.1 1-.3 1.4c-.2.4-.5.8-1 1.1-.4.3-.9.5-1.5.7-.6.2-1.2.3-1.9.3-.8 0-1.5-.1-2.1-.3-.6-.2-1.1-.5-1.5-.9-.4-.4-.7-.8-.9-1.2-.2-.5-.3-.9-.3-1.4h2.5c0 .4.1.7.2.9.1.2.3.4.6.6.2.2.5.3.8.3s.6.1.9.1c.7 0 1.2-.1 1.6-.4.2-.1.4-.5.5-1zm11.8 3.2c-.1-.1-.1-.3-.2-.5 0-.2-.1-.4-.1-.6-.2.2-.4.3-.6.5-.2.2-.4.3-.7.4-.2.1-.5.2-.8.3-.3.1-.6.1-.9.1-.6 0-1.1-.1-1.6-.3-.5-.2-.9-.4-1.2-.7-.4-.3-.6-.7-.8-1.1-.2-.4-.3-.9-.3-1.4 0-.6.1-1.2.4-1.7.2-.5.6-.9 1-1.2.4-.3 1-.6 1.7-.7.7-.2 1.4-.2 2.2-.2h1.6v-.8c0-.6-.2-1.1-.5-1.4-.3-.4-.9-.5-1.5-.5-.3 0-.6 0-.8.1s-.5.2-.6.3c-.2.1-.3.3-.4.5-.1.2-.1.4-.1.6H445c0-.5.1-.9.3-1.3.2-.4.5-.8 1-1.1.4-.3.9-.6 1.5-.8.6-.2 1.2-.3 2-.3.6 0 1.2.1 1.8.3.5.2 1 .4 1.4.8.4.3.7.8.9 1.2s.3 1.1.3 1.8v5.2c0 1 .1 1.9.4 2.5v.2l-2.8-.2zm-2.9-1.9c.3 0 .6 0 .8-.1.3-.1.5-.2.7-.3.2-.1.4-.3.6-.4.1-.2.3-.3.4-.5v-2.2H450c-1 0-1.7.2-2.2.5-.5.3-.7.8-.7 1.4 0 .2 0 .5.1.7.1.2.2.4.4.5.1.1.4.3.6.3.1.1.4.1.7.1zm14.4-1.3c0-.2 0-.4-.1-.5-.1-.2-.2-.3-.4-.5-.2-.1-.4-.3-.8-.4-.3-.1-.8-.2-1.3-.3-.6-.1-1.2-.3-1.7-.5s-1-.4-1.3-.7c-.4-.3-.6-.6-.9-1-.2-.4-.3-.8-.3-1.3s.1-.9.3-1.3c.2-.4.5-.8.9-1.1.4-.3.9-.6 1.4-.8.6-.2 1.2-.3 1.9-.3s1.4.1 2 .3c.6.2 1.1.5 1.5.8.4.3.7.7.9 1.2.2.4.3.9.3 1.5h-2.6c0-.2 0-.4-.1-.7-.1-.2-.2-.4-.4-.6-.2-.2-.4-.3-.6-.4-.3-.1-.5-.1-.9-.1-.3 0-.6 0-.9.1l-.6.3c-.2.1-.3.3-.4.5-.1.2-.1.4-.1.6s0 .4.1.5c.1.2.2.3.4.4.2.1.4.2.7.3.3.1.7.2 1.2.3.7.1 1.3.3 1.8.5s1 .4 1.4.7.6.6.8 1c.2.4.3.8.3 1.3s-.1 1-.3 1.4-.5.8-.9 1.1c-.4.3-.9.5-1.5.7-.6.2-1.2.3-1.9.3-.8 0-1.5-.1-2.1-.3-.6-.2-1.1-.5-1.5-.9-.4-.4-.7-.8-.9-1.2-.2-.5-.3-.9-.3-1.4h2.5c0 .4.1.7.2.9.1.2.3.4.5.6.2.2.5.3.8.3.3.1.6.1.9.1.7 0 1.2-.1 1.6-.4.1-.1.3-.5.4-1zm11.3 0c0-.2 0-.4-.1-.5-.1-.2-.2-.3-.4-.5-.2-.1-.4-.3-.8-.4-.3-.1-.8-.2-1.3-.3-.6-.1-1.2-.3-1.7-.5s-1-.4-1.3-.7c-.4-.3-.6-.6-.9-1-.2-.4-.3-.8-.3-1.3s.1-.9.3-1.3c.2-.4.5-.8.9-1.1.4-.3.9-.6 1.4-.8.6-.2 1.2-.3 1.9-.3s1.4.1 1.9.3c.6.2 1.1.5 1.5.8.4.3.7.7.9 1.2.2.4.3.9.3 1.5h-2.6c0-.2 0-.4-.1-.7-.1-.2-.2-.4-.4-.6-.2-.2-.4-.3-.6-.4-.3-.1-.6-.1-.9-.1-.3 0-.6 0-.9.1-.2.1-.5.2-.6.3-.2.1-.3.3-.4.5-.1.2-.1.4-.1.6s0 .4.1.5c.1.2.2.3.4.4.2.1.4.2.7.3.3.1.7.2 1.2.3.7.1 1.3.3 1.8.5s1 .4 1.4.7c.4.3.6.6.8 1 .2.4.3.8.3 1.3s-.1 1-.3 1.4c-.2.4-.5.8-1 1.1-.4.3-.9.5-1.5.7-.6.2-1.2.3-1.9.3-.8 0-1.5-.1-2.1-.3-.6-.2-1.1-.5-1.5-.9-.4-.4-.7-.8-.9-1.2s-.3-.9-.3-1.4h2.5c0 .4.1.7.2.9.1.2.3.4.5.6.2.2.5.3.8.3s.6.1.9.1c.7 0 1.2-.1 1.6-.4.3-.1.5-.5.6-1z" class="st1"/></g></mask><path id="Shape_62_" d="M422.5-91.8h59.7v22h-59.7z" class="st70"/></g><g id="Clipped_41_" transform="translate(142.52 330.34)"><defs><filter id="Adobe_OpacityMaskFilter_35_" width="59.7" height="22.1" x="424.8" y="-205.1" filterUnits="userSpaceOnUse"><feColorMatrix values="1 0 0 0 0 0 1 0 0 0 0 0 1 0 0 0 0 0 1 0"/></filter></defs><mask id="mask-72_1_" width="59.7" height="22.1" x="424.8" y="-205.1" maskUnits="userSpaceOnUse"><g class="st71"><path id="path-71_1_" d="M429.8-189.6c0-.4.1-.8.4-1 .3-.3.6-.4 1.1-.4.5 0 .9.1 1.1.4.3.3.4.6.4 1s-.1.7-.4 1c-.3.3-.6.4-1.1.4-.2 0-.4 0-.6-.1-.2-.1-.3-.2-.5-.3-.1-.1-.2-.3-.3-.5-.1-.1-.1-.3-.1-.5zm12.5-1.9c0-.2 0-.4-.1-.5-.1-.2-.2-.3-.4-.5-.2-.1-.4-.3-.8-.4-.3-.1-.8-.2-1.3-.3-.6-.1-1.2-.3-1.7-.5s-1-.4-1.3-.7-.6-.6-.9-1c-.2-.4-.3-.8-.3-1.3s.1-.9.3-1.3c.2-.4.5-.8.9-1.1.4-.3.9-.6 1.4-.8.5-.2 1.2-.3 1.9-.3s1.4.1 2 .3c.6.2 1.1.4 1.5.8.4.3.7.7.9 1.2.2.4.3.9.3 1.5h-2.6c0-.2 0-.4-.1-.6-.1-.2-.2-.4-.4-.6s-.4-.3-.6-.4c-.2-.1-.5-.1-.9-.1-.3 0-.6 0-.9.1l-.6.3s-.3.3-.4.5c-.1.2-.1.4-.1.6s0 .4.1.5c.1.1.2.3.4.4.2.1.4.2.7.3.3.1.7.2 1.2.3.7.1 1.3.3 1.8.5s1 .4 1.4.7c.4.3.6.6.8 1s.3.8.3 1.4c0 .5-.1 1-.3 1.4-.2.4-.5.8-.9 1.1s-.9.6-1.5.7c-.6.2-1.2.3-1.9.3-.8 0-1.5-.1-2.1-.3-.6-.2-1.1-.5-1.5-.9-.4-.4-.7-.8-.9-1.2-.2-.5-.3-.9-.3-1.4h2.5c0 .4.1.7.2.9.1.2.3.4.5.6.2.1.5.3.8.3.3.1.6.1.9.1.7 0 1.2-.1 1.6-.4.2-.3.4-.7.4-1.2zm11.8 3.2c-.1-.1-.1-.3-.2-.5 0-.2-.1-.4-.1-.6-.2.2-.4.3-.6.5-.2.2-.4.3-.7.4-.2.1-.5.2-.8.3-.3.1-.6.1-1 .1-.6 0-1.1-.1-1.6-.3-.5-.2-.9-.4-1.2-.7-.4-.3-.6-.7-.8-1.1-.2-.4-.3-.9-.3-1.4 0-.6.1-1.2.4-1.7.2-.5.6-.9 1-1.2.5-.3 1-.6 1.7-.7.7-.2 1.4-.2 2.2-.2h1.7v-.8c0-.6-.2-1.1-.5-1.4-.3-.4-.9-.5-1.5-.5-.3 0-.6 0-.8.1-.2.1-.5.2-.6.3-.2.1-.3.3-.4.5-.1.2-.1.4-.1.6h-2.6c0-.5.1-.9.3-1.3s.5-.8 1-1.1c.4-.3.9-.6 1.5-.8s1.2-.3 2-.3c.6 0 1.2.1 1.8.3.5.2 1 .4 1.4.8.4.3.7.8.9 1.2s.3 1.1.3 1.8v5.2c0 1 .1 1.9.4 2.5v.2l-2.8-.2zm-2.8-1.9c.3 0 .6 0 .8-.1.3-.1.5-.2.7-.3.2-.1.4-.3.6-.4.1-.2.3-.3.4-.5v-2.2h-1.4c-1 0-1.7.2-2.2.5-.5.3-.7.8-.7 1.4 0 .2 0 .5.1.7.1.2.2.4.4.5.1.1.3.3.6.3.1.1.3.1.7.1zm14.3-1.3c0-.2 0-.4-.1-.5-.1-.2-.2-.3-.4-.5-.2-.1-.4-.3-.8-.4-.3-.1-.8-.2-1.3-.3-.6-.1-1.2-.3-1.7-.5s-.9-.4-1.3-.7c-.4-.3-.6-.6-.9-1-.2-.4-.3-.8-.3-1.3s.1-.9.3-1.3c.2-.4.5-.8.9-1.1.4-.3.9-.6 1.4-.8.6-.2 1.2-.3 1.9-.3s1.4.1 1.9.3c.6.2 1.1.4 1.5.8.4.3.7.7.9 1.2.2.4.3.9.3 1.5h-2.6c0-.2 0-.4-.1-.6-.1-.2-.2-.4-.4-.6-.2-.2-.4-.3-.6-.4-.3-.1-.6-.1-.9-.1-.3 0-.6 0-.9.1-.2.1-.5.2-.6.3s-.3.3-.4.5c-.1.2-.1.4-.1.6s0 .4.1.5c.1.1.2.3.4.4.2.1.4.2.7.3.3.1.7.2 1.2.3.7.1 1.3.3 1.8.5s1 .4 1.3.7c.4.3.7.6.8 1 .2.4.3.8.3 1.4 0 .5-.1 1-.3 1.4-.2.4-.5.8-1 1.1s-.9.6-1.5.7c-.6.2-1.2.3-1.9.3-.8 0-1.5-.1-2.1-.3-.6-.2-1.1-.5-1.5-.9-.4-.4-.7-.8-.9-1.2-.2-.5-.3-.9-.3-1.4h2.5c0 .4.1.7.2.9.1.2.3.4.6.6.2.1.5.3.8.3.3.1.6.1.9.1.7 0 1.2-.1 1.6-.4.4-.3.6-.7.6-1.2zm11.4 0c0-.2 0-.4-.1-.5-.1-.2-.2-.3-.4-.5-.2-.1-.4-.3-.8-.4-.3-.1-.8-.2-1.3-.3-.6-.1-1.2-.3-1.7-.5s-1-.4-1.3-.7c-.4-.3-.6-.6-.9-1-.2-.4-.3-.8-.3-1.3s.1-.9.3-1.3c.2-.4.5-.8.9-1.1.4-.3.9-.6 1.4-.8s1.2-.3 1.9-.3 1.4.1 1.9.3c.6.2 1.1.4 1.5.8.4.3.7.7.9 1.2.2.4.3.9.3 1.5h-2.6c0-.2-.1-.4-.1-.6-.1-.2-.2-.4-.4-.6-.2-.2-.4-.3-.6-.4-.3-.1-.5-.1-.9-.1-.3 0-.6 0-.9.1-.2.1-.5.2-.6.3-.2.1-.3.3-.4.5-.1.2-.1.4-.1.6s0 .4.1.5c.1.1.2.3.4.4.2.1.4.2.7.3.3.1.7.2 1.2.3.7.1 1.3.3 1.8.5s1 .4 1.4.7c.4.3.6.6.8 1s.3.8.3 1.4c0 .5-.1 1-.3 1.4-.2.4-.5.8-.9 1.1s-.9.6-1.5.7c-.6.2-1.2.3-1.9.3-.8 0-1.5-.1-2.1-.3-.6-.2-1.1-.5-1.6-.9-.4-.4-.7-.8-.9-1.2-.2-.5-.3-.9-.3-1.4h2.5c0 .4.1.7.2.9.1.2.3.4.5.6.2.1.5.3.8.3.3.1.6.1.9.1.7 0 1.2-.1 1.6-.4.3-.3.5-.7.6-1.2z" class="st1"/></g></mask><path id="Shape_106_" d="M424.8-205.1h59.7v22h-59.7z" class="st72"/></g><g id="Clipped_27_" transform="translate(.52 111.34)"><defs><filter id="Adobe_OpacityMaskFilter_36_" width="67" height="67" x="448" y="-66" filterUnits="userSpaceOnUse"><feColorMatrix values="1 0 0 0 0 0 1 0 0 0 0 0 1 0 0 0 0 0 1 0"/></filter></defs><mask id="mask-74" width="67" height="67" x="448" y="-66" maskUnits="userSpaceOnUse"><g class="st73"><path id="path-73" d="M427-87h109V22H427V-87zm22 24c0-1.1.9-2 2-2h61c1.1 0 2 .9 2 2v61c0 1.1-.9 2-2 2h-61c-1.1 0-2-.9-2-2v-61zm-2 0v61c0 2.2 1.8 4 4 4h61c2.2 0 4-1.8 4-4v-61c0-2.2-1.8-4-4-4h-61c-2.2 0-4 1.8-4 4z" class="st1"/></g></mask><g class="st74"><g transform="translate(21 21)"><defs><filter id="Adobe_OpacityMaskFilter_37_" width="67" height="67" x="427" y="-87" filterUnits="userSpaceOnUse"><feColorMatrix values="1 0 0 0 0 0 1 0 0 0 0 0 1 0 0 0 0 0 1 0"/></filter></defs><mask id="mask-76" width="67" height="67" x="427" y="-87" maskUnits="userSpaceOnUse"><g class="st75"><path id="path-75" d="M427-84c0-1.7 1.3-3 3-3h61c1.7 0 3 1.3 3 3v61c0 1.7-1.3 3-3 3h-61c-1.7 0-3-1.3-3-3v-61z" class="st1"/></g></mask><path id="Shape_65_" d="M427-84c0-1.7 1.3-3 3-3h61c1.7 0 3 1.3 3 3v61c0 1.7-1.3 3-3 3h-61c-1.7 0-3-1.3-3-3v-61z" class="st76"/></g></g></g><g id="Clipped_28_" transform="translate(21.52 132.34)"><defs><filter id="Adobe_OpacityMaskFilter_38_" width="71" height="71" x="425" y="-89" filterUnits="userSpaceOnUse"><feColorMatrix values="1 0 0 0 0 0 1 0 0 0 0 0 1 0 0 0 0 0 1 0"/></filter></defs><mask id="mask-78" width="71" height="71" x="425" y="-89" maskUnits="userSpaceOnUse"><g class="st77"><path id="path-77" d="M427-84c0-1.7 1.3-3 3-3h61c1.7 0 3 1.3 3 3v61c0 1.7-1.3 3-3 3h-61c-1.7 0-3-1.3-3-3v-61z" class="st1"/></g></mask><path id="Shape_67_" d="M427-84c0-1.7 1.3-3 3-3h61c1.7 0 3 1.3 3 3v61c0 1.7-1.3 3-3 3h-61c-1.7 0-3-1.3-3-3v-61z" class="st78"/></g><g id="Clipped_29_" transform="translate(34.52 156.34)"><defs><filter id="Adobe_OpacityMaskFilter_39_" width="49.7" height="26.7" x="422.5" y="-91.5" filterUnits="userSpaceOnUse"><feColorMatrix values="1 0 0 0 0 0 1 0 0 0 0 0 1 0 0 0 0 0 1 0"/></filter></defs><mask id="mask-80" width="49.7" height="26.7" x="422.5" y="-91.5" maskUnits="userSpaceOnUse"><g class="st79"><path id="path-79" d="M427.5-71.3c0-.4.1-.8.4-1 .3-.3.6-.4 1.1-.4.5 0 .9.1 1.1.4.3.3.4.6.4 1s-.1.7-.4 1c-.3.3-.6.4-1.1.4-.2 0-.4 0-.6-.1-.2-.1-.3-.2-.5-.3-.1-.1-.2-.3-.3-.4s-.1-.4-.1-.6zm8.6-9.1c.4-.5.9-.8 1.4-1.1.5-.3 1.1-.4 1.8-.4.6 0 1.1.1 1.5.2.5.2.9.4 1.2.8.3.3.6.8.8 1.4.2.5.3 1.2.3 2v7.5h-2.6v-7.5c0-.8-.2-1.4-.5-1.7-.3-.3-.9-.5-1.5-.5-.5 0-1 .1-1.4.4-.4.2-.7.6-.9 1v8.3h-2.6v-16.5h2.6l-.1 6.1zm19.8 4.7c0 .9-.1 1.7-.3 2.4-.2.7-.5 1.3-.9 1.9-.4.5-.9.9-1.4 1.2-.6.3-1.2.4-2 .4-.7 0-1.3-.1-1.8-.4-.5-.2-1-.6-1.3-1.1l-.1 1.3h-2.4v-16.5h2.6v6c.4-.4.8-.8 1.3-1 .5-.2 1.1-.3 1.7-.3.8 0 1.4.2 2 .4.6.3 1 .7 1.4 1.2.4.5.7 1.1.9 1.9.2.7.3 1.5.3 2.4v.2zm-2.6-.2c0-.5 0-1-.1-1.5-.1-.4-.2-.8-.4-1.2-.2-.3-.5-.6-.8-.8-.3-.2-.8-.3-1.2-.3-.6 0-1.1.1-1.5.4-.4.3-.7.6-.9 1.1v4.8c.2.4.5.8.9 1.1.4.3.9.4 1.5.4.5 0 .9-.1 1.2-.3.3-.2.6-.5.8-.8.2-.3.3-.7.4-1.2.1-.5.1-.9.1-1.5v-.2zm11.3 2.8c0-.2 0-.4-.1-.5-.1-.2-.2-.3-.4-.5-.2-.1-.4-.3-.8-.4-.3-.1-.8-.2-1.3-.3-.6-.1-1.2-.3-1.7-.5s-.9-.4-1.3-.7c-.4-.3-.6-.6-.9-1-.2-.4-.3-.8-.3-1.3s.1-.9.3-1.3c.2-.4.5-.8.9-1.1.4-.3.9-.6 1.4-.8.6-.2 1.2-.3 1.9-.3s1.4.1 1.9.3c.6.2 1.1.4 1.5.8.4.3.7.7.9 1.2.2.4.3.9.3 1.5h-2.6c0-.2 0-.4-.1-.7-.1-.2-.2-.4-.4-.6-.2-.2-.4-.3-.6-.4-.2-.1-.5-.1-.9-.1-.3 0-.6 0-.9.1l-.6.3c-.2.1-.3.3-.4.5-.1.2-.1.4-.1.6 0 .2 0 .4.1.5.1.2.2.3.4.4.2.1.4.2.7.3.3.1.7.2 1.2.3.7.1 1.3.3 1.8.5s1 .4 1.4.7c.4.3.7.6.9 1 .2.4.3.8.3 1.4 0 .5-.1 1-.3 1.4-.2.4-.5.8-1 1.1-.4.3-.9.5-1.5.7-.6.2-1.2.3-1.9.3-.8 0-1.5-.1-2.1-.3-.6-.2-1.1-.5-1.5-.9-.4-.4-.7-.8-.9-1.2s-.3-.9-.3-1.4h2.5c0 .4.1.7.2.9.1.2.3.4.5.6.2.1.5.3.8.3s.6.1.9.1c.7 0 1.2-.1 1.6-.4.4-.3.6-.6.5-1.1z" class="st1"/></g></mask><path id="Shape_69_" d="M422.5-91.5h49.7v26.7h-49.7z" class="st80"/></g><g id="Clipped_30_" transform="translate(231.52 111.34)"><defs><filter id="Adobe_OpacityMaskFilter_40_" width="67" height="67" x="448" y="-66" filterUnits="userSpaceOnUse"><feColorMatrix values="1 0 0 0 0 0 1 0 0 0 0 0 1 0 0 0 0 0 1 0"/></filter></defs><mask id="mask-82" width="67" height="67" x="448" y="-66" maskUnits="userSpaceOnUse"><g class="st81"><path id="path-81" d="M427-87h109V22H427V-87zm22 24c0-1.1.9-2 2-2h61c1.1 0 2 .9 2 2v61c0 1.1-.9 2-2 2h-61c-1.1 0-2-.9-2-2v-61zm-2 0v61c0 2.2 1.8 4 4 4h61c2.2 0 4-1.8 4-4v-61c0-2.2-1.8-4-4-4h-61c-2.2 0-4 1.8-4 4z" class="st1"/></g></mask><g class="st82"><g transform="translate(21 21)"><defs><filter id="Adobe_OpacityMaskFilter_41_" width="67" height="67" x="427" y="-87" filterUnits="userSpaceOnUse"><feColorMatrix values="1 0 0 0 0 0 1 0 0 0 0 0 1 0 0 0 0 0 1 0"/></filter></defs><mask id="mask-84" width="67" height="67" x="427" y="-87" maskUnits="userSpaceOnUse"><g class="st83"><path id="path-83" d="M427-84c0-1.7 1.3-3 3-3h61c1.7 0 3 1.3 3 3v61c0 1.7-1.3 3-3 3h-61c-1.7 0-3-1.3-3-3v-61z" class="st1"/></g></mask><path id="Shape_72_" d="M427-84c0-1.7 1.3-3 3-3h61c1.7 0 3 1.3 3 3v61c0 1.7-1.3 3-3 3h-61c-1.7 0-3-1.3-3-3v-61z" class="st84"/></g></g></g><g id="Clipped_31_" transform="translate(252.52 132.34)"><defs><filter id="Adobe_OpacityMaskFilter_42_" width="71" height="71" x="425" y="-89" filterUnits="userSpaceOnUse"><feColorMatrix values="1 0 0 0 0 0 1 0 0 0 0 0 1 0 0 0 0 0 1 0"/></filter></defs><mask id="mask-86" width="71" height="71" x="425" y="-89" maskUnits="userSpaceOnUse"><g class="st85"><path id="path-85" d="M427-84c0-1.7 1.3-3 3-3h61c1.7 0 3 1.3 3 3v61c0 1.7-1.3 3-3 3h-61c-1.7 0-3-1.3-3-3v-61z" class="st1"/></g></mask><path id="Shape_74_" d="M427-84c0-1.7 1.3-3 3-3h61c1.7 0 3 1.3 3 3v61c0 1.7-1.3 3-3 3h-61c-1.7 0-3-1.3-3-3v-61z" class="st86"/></g><g id="Clipped_32_" transform="translate(265.52 161.34)"><defs><filter id="Adobe_OpacityMaskFilter_43_" width="50.4" height="26.4" x="422.5" y="-91.8" filterUnits="userSpaceOnUse"><feColorMatrix values="1 0 0 0 0 0 1 0 0 0 0 0 1 0 0 0 0 0 1 0"/></filter></defs><mask id="mask-88" width="50.4" height="26.4" x="422.5" y="-91.8" maskUnits="userSpaceOnUse"><g class="st87"><path id="path-87" d="M427.5-76.3c0-.4.1-.8.4-1 .3-.3.6-.4 1.1-.4.5 0 .9.1 1.1.4.3.3.4.6.4 1s-.1.7-.4 1c-.3.3-.6.4-1.1.4-.2 0-.4 0-.6-.1-.2-.1-.3-.2-.5-.3-.1-.1-.2-.3-.3-.4s-.1-.4-.1-.6zm16.2-4.4c0 .8-.1 1.6-.3 2.4-.2.7-.5 1.3-.9 1.9-.4.5-.9.9-1.4 1.2-.6.3-1.2.4-1.9.4s-1.2-.1-1.8-.3c-.5-.2-.9-.5-1.3-.9v5.5h-2.6v-16.1h2.4l.1 1.2c.4-.5.8-.8 1.3-1 .5-.2 1.1-.4 1.8-.4s1.4.1 2 .4c.6.3 1 .7 1.4 1.2.4.5.7 1.1.9 1.9.2.7.3 1.5.3 2.4v.2zm-2.6-.2c0-.5 0-1-.2-1.5-.1-.5-.3-.9-.5-1.2-.2-.3-.5-.6-.8-.8-.3-.2-.7-.3-1.2-.3-.6 0-1 .1-1.4.4-.4.2-.7.6-.9 1v5.2c.2.4.5.7.9 1 .4.2.9.4 1.4.4.5 0 .9-.1 1.2-.3.3-.2.6-.5.8-.8.2-.3.4-.8.5-1.2.1-.5.1-.9.1-1.5v-.4h.1zm7.2-5.7l.1 1.4c.4-.5.9-.9 1.5-1.2.6-.3 1.2-.4 1.9-.4.6 0 1.1.1 1.5.2.4.2.8.4 1.2.8.3.3.6.8.7 1.3.2.5.3 1.2.3 2v7.5h-2.6v-7.5c0-.4 0-.7-.1-1-.1-.3-.2-.5-.4-.7-.2-.2-.4-.3-.6-.4-.3-.1-.6-.1-.9-.1-.5 0-1 .1-1.4.4s-.7.6-1 1v8.2h-2.6v-11.6l2.4.1zm9.3 5.7c0-.9.1-1.7.3-2.4.2-.7.5-1.3.9-1.9.4-.5.9-.9 1.5-1.2s1.2-.4 1.9-.4 1.3.1 1.8.4c.5.2.9.6 1.3 1l.1-1.2h2.3v11.3c0 .8-.1 1.5-.4 2.1-.3.6-.6 1.1-1.1 1.5-.5.4-1 .7-1.7.9-.6.2-1.4.3-2.1.3-.3 0-.7 0-1.1-.1l-1.2-.3c-.4-.2-.8-.3-1.2-.6-.4-.2-.7-.5-.9-.9l1.2-1.6c.4.5.9.9 1.4 1.1.5.2 1 .3 1.6.3.9 0 1.5-.2 2-.7s.8-1.2.8-2.1v-.6c-.4.4-.8.7-1.3.9-.5.2-1.1.3-1.7.3-.7 0-1.4-.2-1.9-.4-.6-.3-1.1-.7-1.5-1.2-.4-.5-.7-1.1-.9-1.9-.2-.7-.3-1.5-.3-2.3l.2-.3zm2.6.2c0 .5 0 1 .2 1.5.1.5.3.9.5 1.2.2.3.5.6.8.8.3.2.7.3 1.2.3.6 0 1.1-.1 1.4-.4.4-.2.7-.6.9-1v-5.1c-.2-.4-.5-.7-.9-1-.4-.2-.8-.3-1.4-.3-.5 0-.9.1-1.2.3-.3.2-.6.5-.8.8s-.4.8-.5 1.2c-.1.5-.2 1-.2 1.5v.2z" class="st1"/></g></mask><path id="Shape_76_" d="M422.5-91.8h50.4v26.4h-50.4z" class="st88"/></g><g id="Clipped_33_" transform="translate(231.52 223.34)"><defs><filter id="Adobe_OpacityMaskFilter_44_" width="67" height="67" x="448" y="-66" filterUnits="userSpaceOnUse"><feColorMatrix values="1 0 0 0 0 0 1 0 0 0 0 0 1 0 0 0 0 0 1 0"/></filter></defs><mask id="mask-90" width="67" height="67" x="448" y="-66" maskUnits="userSpaceOnUse"><g class="st89"><path id="path-89" d="M427-87h109V22H427V-87zm22 24c0-1.1.9-2 2-2h61c1.1 0 2 .9 2 2v61c0 1.1-.9 2-2 2h-61c-1.1 0-2-.9-2-2v-61zm-2 0v61c0 2.2 1.8 4 4 4h61c2.2 0 4-1.8 4-4v-61c0-2.2-1.8-4-4-4h-61c-2.2 0-4 1.8-4 4z" class="st1"/></g></mask><g class="st90"><g transform="translate(21 21)"><defs><filter id="Adobe_OpacityMaskFilter_45_" width="67" height="67" x="427" y="-87" filterUnits="userSpaceOnUse"><feColorMatrix values="1 0 0 0 0 0 1 0 0 0 0 0 1 0 0 0 0 0 1 0"/></filter></defs><mask id="mask-92" width="67" height="67" x="427" y="-87" maskUnits="userSpaceOnUse"><g class="st91"><path id="path-91" d="M427-84c0-1.7 1.3-3 3-3h61c1.7 0 3 1.3 3 3v61c0 1.7-1.3 3-3 3h-61c-1.7 0-3-1.3-3-3v-61z" class="st1"/></g></mask><path id="Shape_79_" d="M427-84c0-1.7 1.3-3 3-3h61c1.7 0 3 1.3 3 3v61c0 1.7-1.3 3-3 3h-61c-1.7 0-3-1.3-3-3v-61z" class="st92"/></g></g></g><g id="Clipped_34_" transform="translate(252.52 244.34)"><defs><filter id="Adobe_OpacityMaskFilter_46_" width="71" height="71" x="425" y="-89" filterUnits="userSpaceOnUse"><feColorMatrix values="1 0 0 0 0 0 1 0 0 0 0 0 1 0 0 0 0 0 1 0"/></filter></defs><mask id="mask-94" width="71" height="71" x="425" y="-89" maskUnits="userSpaceOnUse"><g class="st93"><path id="path-93" d="M427-84c0-1.7 1.3-3 3-3h61c1.7 0 3 1.3 3 3v61c0 1.7-1.3 3-3 3h-61c-1.7 0-3-1.3-3-3v-61z" class="st1"/></g></mask><path id="Shape_81_" d="M427-84c0-1.7 1.3-3 3-3h61c1.7 0 3 1.3 3 3v61c0 1.7-1.3 3-3 3h-61c-1.7 0-3-1.3-3-3v-61z" class="st94"/></g><g id="Clipped_35_" transform="translate(268.52 268.34)"><defs><filter id="Adobe_OpacityMaskFilter_47_" width="43.7" height="30.7" x="422.5" y="-91" filterUnits="userSpaceOnUse"><feColorMatrix values="1 0 0 0 0 0 1 0 0 0 0 0 1 0 0 0 0 0 1 0"/></filter></defs><mask id="mask-96" width="43.7" height="30.7" x="422.5" y="-91" maskUnits="userSpaceOnUse"><g class="st95"><path id="path-95" d="M427.5-71.3c0-.4.1-.8.4-1 .3-.3.6-.4 1.1-.4.5 0 .9.1 1.1.4.3.3.4.6.4 1s-.1.7-.4 1c-.3.3-.6.4-1.1.4-.2 0-.4 0-.6-.1-.2-.1-.3-.2-.5-.3-.1-.1-.2-.3-.3-.4s-.1-.4-.1-.6zm8.7-10.3V-69c0 1.2-.3 2.1-.9 2.7-.6.6-1.5.9-2.6.9-.2 0-.5 0-.7-.1-.2 0-.5-.1-.7-.1v-2.1c.1 0 .3.1.5.1h.4c.4 0 .8-.1 1-.4.2-.2.3-.6.3-1.2v-12.7l2.7.3zm-2.8-3c0-.4.1-.7.4-1 .2-.3.6-.4 1.1-.4.5 0 .8.1 1.1.4.3.3.4.6.4 1s-.1.7-.4 1c-.3.3-.6.4-1.1.4s-.8-.1-1.1-.4c-.3-.3-.5-.7-.4-1zm15.8 8.9c0 .8-.1 1.6-.3 2.4-.2.7-.5 1.3-.9 1.9-.4.5-.9.9-1.4 1.2s-1.2.4-1.9.4-1.2-.1-1.8-.3c-.5-.2-.9-.5-1.3-.9v5.5H439v-16.1h2.4l.1 1.2c.4-.5.8-.8 1.3-1 .5-.2 1.1-.4 1.8-.4s1.4.1 2 .4c.6.3 1 .7 1.4 1.2.4.5.7 1.1.9 1.9.2.7.3 1.5.3 2.4v.2zm-2.6-.2c0-.5 0-1-.2-1.5-.1-.5-.3-.9-.5-1.2-.2-.3-.5-.6-.8-.8-.3-.2-.7-.3-1.2-.3-.6 0-1 .1-1.4.4-.4.2-.7.6-.9 1v5.2c.2.4.5.7.9 1s.9.4 1.4.4c.5 0 .9-.1 1.2-.3.3-.2.6-.5.8-.8.2-.3.4-.8.5-1.2.1-.5.1-.9.1-1.5l.1-.4zm4.3 0c0-.9.1-1.7.3-2.4.2-.7.5-1.4.9-1.9s.9-.9 1.5-1.2 1.2-.4 1.9-.4 1.3.1 1.8.4c.5.2.9.6 1.3 1l.1-1.2h2.4v11.3c0 .8-.1 1.5-.4 2.1s-.6 1.1-1.1 1.5c-.5.4-1 .7-1.7.9-.6.2-1.4.3-2.1.3-.3 0-.7 0-1.1-.1l-1.2-.3c-.4-.2-.8-.3-1.1-.6-.4-.2-.7-.5-.9-.9l1.2-1.6c.4.5.9.9 1.4 1.1s1 .3 1.6.3c.9 0 1.6-.2 2.1-.7s.8-1.2.8-2.1v-.6c-.4.4-.8.7-1.3.9-.5.2-1.1.3-1.7.3-.7 0-1.4-.2-1.9-.4-.6-.3-1.1-.7-1.5-1.2-.4-.5-.7-1.1-.9-1.9-.2-.7-.3-1.5-.3-2.3l-.1-.3zm2.6.2c0 .5 0 1 .1 1.5s.3.9.5 1.2c.2.3.5.6.8.8.3.2.7.3 1.2.3.6 0 1.1-.1 1.4-.4.4-.2.7-.6.9-1v-5.1c-.2-.4-.5-.7-.9-1-.4-.2-.9-.4-1.4-.4-.5 0-.9.1-1.2.3s-.6.5-.9.8-.4.8-.5 1.2c-.1.5-.2 1-.2 1.5l.2.3z" class="st1"/></g></mask><path id="Shape_83_" d="M422.5-91h43.7v30.7h-43.7z" class="st96"/></g><g id="Clipped_36_" transform="translate(.52 223.34)"><defs><filter id="Adobe_OpacityMaskFilter_48_" width="67" height="67" x="448" y="-66" filterUnits="userSpaceOnUse"><feColorMatrix values="1 0 0 0 0 0 1 0 0 0 0 0 1 0 0 0 0 0 1 0"/></filter></defs><mask id="mask-98" width="67" height="67" x="448" y="-66" maskUnits="userSpaceOnUse"><g class="st97"><path id="path-97" d="M427-87h109V22H427V-87zm22 24c0-1.1.9-2 2-2h61c1.1 0 2 .9 2 2v61c0 1.1-.9 2-2 2h-61c-1.1 0-2-.9-2-2v-61zm-2 0v61c0 2.2 1.8 4 4 4h61c2.2 0 4-1.8 4-4v-61c0-2.2-1.8-4-4-4h-61c-2.2 0-4 1.8-4 4z" class="st1"/></g></mask><g class="st98"><g transform="translate(21 21)"><defs><filter id="Adobe_OpacityMaskFilter_49_" width="67" height="67" x="427" y="-87" filterUnits="userSpaceOnUse"><feColorMatrix values="1 0 0 0 0 0 1 0 0 0 0 0 1 0 0 0 0 0 1 0"/></filter></defs><mask id="mask-100" width="67" height="67" x="427" y="-87" maskUnits="userSpaceOnUse"><g class="st99"><path id="path-99" d="M427-84c0-1.7 1.3-3 3-3h61c1.7 0 3 1.3 3 3v61c0 1.7-1.3 3-3 3h-61c-1.7 0-3-1.3-3-3v-61z" class="st1"/></g></mask><path id="Shape_86_" d="M427-84c0-1.7 1.3-3 3-3h61c1.7 0 3 1.3 3 3v61c0 1.7-1.3 3-3 3h-61c-1.7 0-3-1.3-3-3v-61z" class="st100"/></g></g></g><g id="Clipped_37_" transform="translate(21.52 244.34)"><defs><filter id="Adobe_OpacityMaskFilter_50_" width="71" height="71" x="425" y="-89" filterUnits="userSpaceOnUse"><feColorMatrix values="1 0 0 0 0 0 1 0 0 0 0 0 1 0 0 0 0 0 1 0"/></filter></defs><mask id="mask-102" width="71" height="71" x="425" y="-89" maskUnits="userSpaceOnUse"><g class="st101"><path id="path-101" d="M427-84c0-1.7 1.3-3 3-3h61c1.7 0 3 1.3 3 3v61c0 1.7-1.3 3-3 3h-61c-1.7 0-3-1.3-3-3v-61z" class="st1"/></g></mask><path id="Shape_88_" d="M427-84c0-1.7 1.3-3 3-3h61c1.7 0 3 1.3 3 3v61c0 1.7-1.3 3-3 3h-61c-1.7 0-3-1.3-3-3v-61z" class="st102"/></g><g id="Clipped_38_" transform="translate(35.52 273.34)"><defs><filter id="Adobe_OpacityMaskFilter_51_" width="48" height="22.1" x="422.5" y="-91.8" filterUnits="userSpaceOnUse"><feColorMatrix values="1 0 0 0 0 0 1 0 0 0 0 0 1 0 0 0 0 0 1 0"/></filter></defs><mask id="mask-104" width="48" height="22.1" x="422.5" y="-91.8" maskUnits="userSpaceOnUse"><g class="st103"><path id="path-103" d="M427.5-76.3c0-.4.1-.8.4-1 .3-.3.6-.4 1.1-.4.5 0 .9.1 1.1.4.3.3.4.6.4 1s-.1.7-.4 1c-.3.3-.6.4-1.1.4-.2 0-.4 0-.6-.1-.2-.1-.3-.2-.5-.3-.1-.1-.2-.3-.3-.4s-.1-.4-.1-.6zm10.8-.6c.3 0 .6 0 .9-.1.3-.1.5-.2.7-.4.2-.2.4-.4.5-.6.1-.2.2-.5.2-.8h2.5c0 .6-.2 1.1-.4 1.6-.3.5-.6.9-1 1.3s-.9.7-1.5.9c-.6.2-1.2.3-1.8.3-.9 0-1.7-.2-2.3-.5-.7-.3-1.2-.7-1.7-1.3s-.8-1.2-1-1.9c-.2-.7-.3-1.5-.3-2.3v-.3c0-.8.1-1.5.3-2.3.2-.7.5-1.3 1-1.9.4-.5 1-1 1.6-1.3.7-.3 1.4-.5 2.3-.5.7 0 1.3.1 1.9.3.6.2 1.1.5 1.5.9.4.4.7.8 1 1.4.2.5.4 1.1.4 1.8h-2.5c0-.3-.1-.6-.2-.9-.1-.3-.3-.5-.5-.7-.2-.2-.4-.4-.7-.5-.3-.1-.6-.2-1-.2-.5 0-1 .1-1.3.3s-.6.5-.8.9c-.2.3-.3.8-.4 1.2-.1.4-.1.9-.1 1.4v.4c0 .5 0 .9.1 1.4s.2.8.4 1.2c.2.4.5.6.8.9.3.2.8.3 1.4.3zm13.2-1.3c0-.2 0-.4-.1-.5-.1-.2-.2-.3-.4-.5-.2-.1-.4-.3-.8-.4-.3-.1-.8-.2-1.3-.3-.6-.1-1.2-.3-1.7-.5s-1-.4-1.3-.7c-.4-.3-.6-.6-.9-1-.2-.4-.3-.8-.3-1.3s.1-.9.3-1.3c.2-.4.5-.8.9-1.1.4-.3.9-.6 1.4-.8.6-.2 1.2-.3 1.9-.3s1.4.1 1.9.3c.6.2 1.1.5 1.5.8.4.3.7.7.9 1.2.2.4.3.9.3 1.5h-2.6c0-.2 0-.4-.1-.7-.1-.2-.2-.4-.4-.6-.2-.2-.4-.3-.6-.4-.3-.1-.5-.1-.9-.1-.3 0-.6 0-.9.1l-.6.3c-.2.1-.3.3-.4.5-.1.2-.1.4-.1.6s0 .4.1.5c.1.2.2.3.4.4.2.1.4.2.7.3.3.1.7.2 1.2.3.7.1 1.3.3 1.8.5s1 .4 1.4.7c.4.3.6.6.9 1 .2.4.3.8.3 1.3s-.1 1-.3 1.4-.5.8-1 1.1c-.4.3-.9.5-1.5.7-.6.2-1.2.3-1.9.3-.8 0-1.5-.1-2.1-.3-.6-.2-1.1-.5-1.5-.9-.4-.4-.7-.8-.9-1.2-.2-.5-.3-.9-.3-1.4h2.5c0 .4.1.7.2.9.1.2.3.4.5.6.2.2.5.3.8.3.3.1.6.1.9.1.7 0 1.2-.1 1.6-.4.3-.1.5-.5.5-1zm11.4 0c0-.2 0-.4-.1-.5-.1-.2-.2-.3-.4-.5-.2-.1-.4-.3-.8-.4-.3-.1-.8-.2-1.3-.3-.6-.1-1.2-.3-1.7-.5s-1-.4-1.3-.7-.6-.6-.9-1c-.2-.4-.3-.8-.3-1.3s.1-.9.3-1.3c.2-.4.5-.8.9-1.1.4-.3.9-.6 1.4-.8.5-.2 1.2-.3 1.9-.3s1.4.1 2 .3c.6.2 1.1.5 1.5.8.4.3.7.7.9 1.2.2.4.3.9.3 1.5h-2.6c0-.2 0-.4-.1-.7-.1-.2-.2-.4-.4-.6-.2-.2-.4-.3-.6-.4-.3-.1-.5-.1-.9-.1-.3 0-.6 0-.9.1l-.6.3c-.2.1-.3.3-.4.5-.1.2-.1.4-.1.6s0 .4.1.5c.1.2.2.3.4.4s.4.2.7.3c.3.1.7.2 1.2.3.7.1 1.3.3 1.8.5s1 .4 1.4.7.6.6.9 1c.2.4.3.8.3 1.3s-.1 1-.3 1.4-.5.8-.9 1.1c-.4.3-.9.5-1.5.7-.6.2-1.2.3-1.9.3-.8 0-1.5-.1-2.1-.3-.6-.2-1.1-.5-1.5-.9-.4-.4-.7-.8-.9-1.2s-.3-.9-.3-1.4h2.5c0 .4.1.7.2.9.1.2.3.4.6.6.2.2.5.3.8.3s.6.1.9.1c.7 0 1.2-.1 1.6-.4 0-.1.2-.5.2-1z" class="st1"/></g></mask><path id="Shape_90_" d="M422.5-91.8h47.9v22h-47.9z" class="st104"/></g><path id="Shape_91_" d="M485.52 44.34v-44m0 44v-44m3 33.2l-3 10.8-3-10.8m0-33.2h6m-21 155v-44m0 44v-44m3 33.2l-3 10.8-3-10.8m0-33.2h6m88 18h-74l-1.5 1.5-1.5 1.5v26" class="st105"/><path id="Shape_92_" d="M558.52 129.34h-74l-1.5 1.5-1.5 1.5v26m66.2-32l10.8 3-10.8 3m-63.2 26h-6m118 126v20l-3 2h-78" class="st105"/><path id="Shape_93_" d="M596.52 284.34v20l-3 2h-78m84-11.2l-3-10.8-3 10.8m-78 8.2v6m193-82v20l-3 2h-78" class="st105"/><path id="Shape_94_" d="M708.52 227.34v20l-3 2h-78m84-11.2l-3-10.8-3 10.8m-78 8.2v6m-32-41v-20l-3-2h-78" class="st105"/><path id="Shape_95_" d="M595.52 211.34v-20l-3-2h-78m84 11.2l-3 10.8-3-10.8m-78-8.2v-6m81-128v20l-3 2h-78" class="st105"/><path id="Shape_96_" d="M595.52 58.34v20l-3 2h-78m84-11.2l-3-10.8-3 10.8m-78 8.2v6m198-42v-20l-3-2h-78" class="st105"/><path id="Shape_97_" d="M712.52 41.34v-20l-3-2h-78m84 11.2l-3 10.8-3-10.8m-78-8.2v-6m78 139v-17h-53l-4-4v-90h-21" class="st105"/><path id="Shape_98_" d="M709.52 155.34v-17h-53l-4-4v-90h-21m81 100.2l-3 10.8-3-10.8m-75-97.2v-6" class="st105"/><path id="Shape_99_" d="M763.52 224.34s185-78 490-78" class="st106"/><path id="Shape_100_" d="M763.52 45.34s187 72 492 72m51 15s-16 6-64.9-25-64.1-60-64.1-60" class="st107"/><path id="Shape_101_" d="M1306.52 132.84s-16-6-64.9 25-64.1 60-64.1 60" class="st107"/><g id="Clipped_39_" transform="translate(14.52 458.34)"><defs><filter id="Adobe_OpacityMaskFilter_52_" width="294.4" height="23.1" x="422.3" y="-91" filterUnits="userSpaceOnUse"><feColorMatrix values="1 0 0 0 0 0 1 0 0 0 0 0 1 0 0 0 0 0 1 0"/></filter></defs><mask id="mask-106" width="294.4" height="23.1" x="422.3" y="-91" maskUnits="userSpaceOnUse"><g class="st108"><path id="path-105" d="M430.2-85.8l3.7 9.8 3.7-9.8h2.9V-73h-2.2v-4.2l.2-5.6-3.8 9.9h-1.6l-3.8-9.9.2 5.6v4.2h-2.2v-12.8h2.9zm24 6.7c0 1-.1 1.8-.4 2.6-.3.8-.6 1.4-1.1 2-.5.5-1 .9-1.7 1.2-.6.3-1.4.4-2.2.4-.8 0-1.5-.1-2.2-.4-.6-.3-1.2-.7-1.7-1.2s-.8-1.2-1.1-2c-.3-.8-.4-1.6-.4-2.6v-.6c0-1 .1-1.8.4-2.6.3-.8.6-1.4 1.1-2 .5-.5 1-.9 1.7-1.2.6-.3 1.4-.4 2.2-.4.8 0 1.5.1 2.2.4.7.3 1.2.7 1.7 1.2s.8 1.2 1.1 2c.3.8.4 1.6.4 2.6v.6zm-2.3-.6c0-.7-.1-1.3-.2-1.9-.1-.5-.3-1-.6-1.4-.3-.4-.6-.7-1-.8-.4-.2-.8-.3-1.3-.3s-.9.1-1.3.3c-.4.2-.7.5-1 .8-.3.4-.5.8-.6 1.4-.1.5-.2 1.2-.2 1.9v.7c0 .7.1 1.3.2 1.9.1.6.4 1 .6 1.4.3.4.6.6 1 .8.4.2.8.3 1.3.3 1 0 1.7-.4 2.3-1.1s.8-1.8.8-3.3v-.7zm5.4 6.7v-12.8h3.8c.9 0 1.6.1 2.3.4.7.3 1.3.7 1.8 1.2s.9 1.2 1.2 1.9c.3.8.4 1.6.4 2.5v.6c0 .9-.1 1.8-.4 2.5-.3.7-.7 1.4-1.2 1.9s-1.1.9-1.9 1.2c-.7.3-1.5.4-2.4.4l-3.6.2zm2.2-11v9.2h1.5c.6 0 1.1-.1 1.6-.3.5-.2.8-.5 1.1-.8.3-.4.5-.8.7-1.4.2-.5.2-1.1.2-1.8v-.7c0-1.4-.3-2.4-.9-3.2-.6-.7-1.5-1.1-2.6-1.1l-1.6.1zm19.8-1.8v8.6c0 .7-.1 1.4-.4 1.9-.2.5-.6 1-1 1.4-.4.4-.9.6-1.5.8-.6.2-1.2.3-1.9.3s-1.3-.1-1.9-.3c-.6-.2-1.1-.5-1.5-.8-.4-.4-.8-.8-1-1.4-.2-.6-.4-1.2-.4-1.9v-8.6h2.2v8.6c0 .4.1.8.2 1.2s.3.6.5.8c.2.2.5.4.8.5.3.1.7.1 1.1.1.4 0 .8 0 1.1-.2s.6-.3.8-.5c.2-.2.4-.5.5-.8.1-.3.2-.7.2-1.2v-8.6l2.2.1zm5.5 11h5.8v1.8h-8v-12.8h2.2v11zm15.9-3.9h-5.2v3.9h6.1v1.8h-8.4v-12.8h8.3v1.8h-6.1v3.5h5.2l.1 1.8zm10.3 2.4c0-.3 0-.5-.1-.7-.1-.2-.2-.4-.4-.6s-.5-.3-.8-.5c-.3-.2-.8-.3-1.4-.5-.6-.2-1.2-.4-1.7-.6-.5-.2-1-.5-1.3-.8-.4-.3-.7-.7-.9-1.1-.2-.4-.3-.9-.3-1.4s.1-1 .3-1.4.5-.8.9-1.1c.4-.3.9-.6 1.4-.7.6-.2 1.2-.3 1.9-.3s1.4.1 1.9.3c.6.2 1.1.5 1.5.8.4.4.7.8.9 1.2.2.5.3 1 .3 1.5H511c0-.3 0-.6-.1-.9-.1-.3-.2-.5-.4-.7-.2-.2-.4-.3-.8-.5-.3-.1-.7-.2-1.1-.2-.4 0-.7 0-1 .1-.3.1-.5.2-.7.4-.2.2-.3.3-.4.6s-.1.5-.1.7c0 .5.2.9.7 1.2.5.3 1.1.6 2.1.9.7.2 1.3.4 1.9.7.5.3 1 .6 1.3.9.4.3.6.7.8 1.1.2.4.3.9.3 1.4 0 .5-.1 1-.3 1.5-.2.4-.5.8-.9 1.1-.4.3-.9.5-1.4.7-.6.2-1.2.2-1.9.2-.6 0-1.2-.1-1.8-.2-.6-.2-1.1-.4-1.6-.8-.5-.3-.9-.8-1.1-1.3-.3-.5-.4-1.1-.4-1.8h2.2c0 .4.1.8.2 1 .1.3.3.5.6.7.2.2.5.3.9.4.3.1.7.1 1.1.1.8 0 1.4-.2 1.7-.5 0-.1.2-.5.2-.9zm20.5.1l2-9.6h2.2l-3 12.8h-2.1l-2.4-9.3-2.5 9.3h-2.1l-3-12.8h2.2l2 9.6 2.4-9.6h1.9l2.4 9.6zm9 3.2h-2.2v-12.8h2.2V-73zm12.7-11h-4v11H547v-11h-4v-1.8h10.2v1.8zm12.7 11h-2.2v-5.7H558v5.7h-2.2v-12.8h2.2v5.3h5.7v-5.3h2.2V-73zm8.9 0v-12.8h3.8c.9 0 1.6.1 2.3.4.7.3 1.3.7 1.8 1.2s.9 1.2 1.2 1.9c.3.8.4 1.6.4 2.5v.6c0 .9-.1 1.8-.4 2.5-.3.7-.7 1.4-1.2 1.9s-1.1.9-1.8 1.2c-.7.3-1.5.4-2.4.4l-3.7.2zm2.2-11v9.2h1.5c.6 0 1.1-.1 1.6-.3.5-.2.8-.5 1.1-.8.3-.4.5-.8.7-1.4.2-.5.2-1.1.2-1.8v-.7c0-1.4-.3-2.4-.9-3.2-.6-.7-1.5-1.1-2.6-1.1l-1.6.1zm17.9 5.3h-5.3v3.9h6.1v1.8h-8.4v-12.8h8.3v1.8h-6.1v3.5h5.3v1.8h.1zm5.9.9v4.8h-2.2v-12.8h4.9c.7 0 1.4.1 2 .3.6.2 1.1.5 1.5.8.4.4.7.8.9 1.3.2.5.3 1 .3 1.6 0 .6-.1 1.2-.3 1.7-.2.5-.5.9-.9 1.2-.4.3-.9.6-1.5.8-.6.2-1.2.3-2 .3h-2.7zm0-1.7h2.7c.4 0 .8 0 1.1-.2.3-.1.6-.2.8-.4.2-.2.3-.4.4-.7.1-.3.1-.6.1-.9 0-.3 0-.6-.1-.9-.1-.3-.2-.5-.4-.7-.2-.2-.5-.4-.8-.5-.3-.1-.7-.2-1.1-.2h-2.7v4.5zm17.6.8h-5.3v3.9h6.1v1.8h-8.4v-12.8h8.3v1.8H613v3.5h5.2l.2 1.8zm13.8 5.7H630l-5.7-9.1v9.1H622v-12.8h2.2l5.7 9.1v-9.1h2.2l.1 12.8zm3.5 0v-12.8h3.8c.9 0 1.6.2 2.3.4.7.3 1.3.7 1.8 1.2s.9 1.2 1.2 1.9c.3.8.4 1.6.4 2.5v.6c0 .9-.1 1.8-.4 2.5-.3.8-.7 1.4-1.2 1.9s-1.1.9-1.8 1.2c-.7.3-1.5.4-2.4.4l-3.7.2zm2.2-11v9.2h1.4c.6 0 1.1-.1 1.6-.3.5-.2.8-.5 1.1-.8.3-.4.5-.8.7-1.3s.2-1.1.2-1.8v-.7c0-1.4-.3-2.5-.9-3.2-.6-.7-1.5-1.1-2.6-1.1h-1.5zm17.9 5.3h-5.3v3.9h6.1v1.8h-8.4v-12.8h8.3v1.8h-6.1v3.5h5.2l.2 1.8zm13.8 5.7h-2.2l-5.7-9.1v9.1h-2.2v-12.8h2.2l5.7 9.1v-9.1h2.2V-73zm13.3-4.2c-.1.6-.2 1.2-.4 1.7s-.6 1-1 1.4-.9.7-1.5.9c-.6.2-1.3.3-2.1.3s-1.5-.1-2.1-.4c-.6-.3-1.2-.7-1.6-1.2-.5-.5-.8-1.2-1-1.9-.2-.7-.4-1.6-.4-2.5v-1c0-.9.1-1.8.4-2.5.2-.7.6-1.4 1-1.9.5-.5 1-.9 1.7-1.2.7-.3 1.4-.4 2.2-.4.8 0 1.4.1 2 .3.6.2 1.1.5 1.5.9.4.4.7.9 1 1.4s.4 1.1.4 1.8h-2.2c0-.4-.1-.8-.2-1.1-.1-.3-.3-.6-.5-.8-.2-.2-.5-.4-.8-.5-.3-.1-.7-.2-1.2-.2s-1 .1-1.3.3c-.4.2-.7.5-1 .8-.2.4-.4.8-.6 1.3s-.2 1.1-.2 1.8v1.1c0 .6.1 1.2.2 1.7s.3 1 .5 1.3c.2.4.5.7.9.9s.8.3 1.3.3.9-.1 1.2-.2c.3-.1.6-.3.8-.5.2-.2.4-.5.5-.8.1-.3.2-.7.3-1.1h2.2zm5.2 4.2h-2.2v-12.8h2.2V-73zm11.1-5.7H694v3.9h6.1v1.8h-8.4v-12.8h8.3v1.8h-6.1v3.5h5.3v1.8zm10.3 2.4c0-.2 0-.5-.1-.7-.1-.2-.2-.4-.4-.5-.2-.2-.5-.3-.8-.5-.4-.1-.8-.3-1.4-.5-.6-.2-1.2-.4-1.7-.6-.5-.2-1-.5-1.3-.8-.4-.3-.7-.7-.9-1.1-.2-.4-.3-.9-.3-1.4 0-.5.1-1 .3-1.4.2-.4.5-.8.9-1.1.4-.3.9-.6 1.4-.7.6-.2 1.2-.3 1.8-.3.7 0 1.4.1 1.9.3.6.2 1.1.5 1.5.8s.7.8.9 1.2c.2.5.3 1 .3 1.5h-2.2c0-.3 0-.6-.2-.8-.1-.3-.2-.5-.4-.7-.2-.2-.4-.3-.8-.4s-.7-.2-1.1-.2c-.4 0-.7 0-1 .1-.3.1-.5.2-.7.4-.2.2-.3.3-.4.6-.1.2-.1.4-.1.7 0 .5.2.9.7 1.2s1.1.6 2 .9c.7.2 1.3.4 1.9.7.5.3 1 .6 1.3.9.4.3.6.7.8 1.1.2.4.3.9.3 1.4 0 .5-.1 1-.3 1.5-.2.4-.5.8-.9 1.1-.4.3-.9.5-1.4.7-.6.2-1.2.2-1.9.2-.6 0-1.2-.1-1.8-.2-.6-.2-1.1-.4-1.6-.8-.5-.3-.9-.8-1.1-1.3-.3-.5-.4-1.1-.4-1.8h2.2c0 .4.1.8.2 1 .1.3.3.5.6.7s.5.3.9.4c.3.1.7.1 1.1.1.8 0 1.3-.2 1.7-.5.2-.2.4-.6.5-1.2z" class="st1"/></g></mask><path id="Shape_103_" d="M422.3-91h294.4v23.2H422.3z" class="st109"/></g><g id="Clipped_40_" transform="translate(954.52 364.34)"><defs><filter id="Adobe_OpacityMaskFilter_53_" width="155.2" height="23.1" x="422.6" y="-92" filterUnits="userSpaceOnUse"><feColorMatrix values="1 0 0 0 0 0 1 0 0 0 0 0 1 0 0 0 0 0 1 0"/></filter></defs><mask id="mask-108" width="155.2" height="23.1" x="422.6" y="-92" maskUnits="userSpaceOnUse"><g class="st110"><path id="path-107" d="M435-77.3c0-.3 0-.5-.1-.7-.1-.2-.2-.4-.4-.6-.2-.2-.5-.3-.8-.5-.4-.2-.8-.3-1.4-.5-.6-.2-1.2-.4-1.7-.6-.5-.2-1-.5-1.3-.8-.4-.3-.7-.7-.9-1.1-.2-.4-.3-.9-.3-1.4 0-.5.1-1 .3-1.4s.5-.8.9-1.1c.4-.3.9-.6 1.4-.7.6-.2 1.2-.3 1.8-.3.7 0 1.4.1 2 .3.6.2 1.1.5 1.5.8s.7.8.9 1.2c.2.5.3 1 .3 1.5H435c0-.3 0-.6-.1-.9-.1-.3-.2-.5-.4-.7-.2-.2-.4-.3-.8-.4-.3-.1-.7-.2-1.1-.2-.4 0-.7 0-1 .1-.3.1-.5.2-.7.4-.2.2-.3.3-.4.6-.1.2-.1.4-.1.7 0 .5.2.9.7 1.2.4.3 1.1.6 2.1.9.7.2 1.3.4 1.9.7.5.3 1 .6 1.3.9.4.3.6.7.8 1.1.2.4.3.9.3 1.4 0 .5-.1 1-.3 1.5-.2.4-.5.8-.9 1.1-.4.3-.9.5-1.4.7-.6.2-1.2.2-1.9.2-.6 0-1.2-.1-1.8-.2-.6-.2-1.1-.4-1.6-.8-.5-.3-.9-.8-1.1-1.3s-.4-1.1-.4-1.8h2.2c0 .4.1.8.2 1 .1.3.3.5.6.7.2.2.5.3.9.4.3.1.7.1 1.1.1.8 0 1.4-.2 1.7-.5 0 0 .2-.4.2-1zm14.8-7.7h-4v11h-2.2v-11h-4v-1.8h10.1l.1 1.8zm9.2 8h-5l-1 3h-2.3l4.8-12.8h2l4.9 12.8h-2.3l-1.1-3zm-4.3-1.8h3.7l-1.9-5.3-1.8 5.3zm18.7-6.2h-4v11h-2.2v-11h-4v-1.8h10.1l.1 1.8zm5.4 11h-2.2v-12.8h2.2V-74zm13.9-4.2c-.1.6-.2 1.2-.4 1.7s-.6 1-1 1.4c-.4.4-.9.7-1.5.9-.6.2-1.3.3-2.1.3s-1.5-.1-2.1-.4c-.6-.3-1.2-.7-1.6-1.2-.5-.5-.8-1.2-1-1.9-.2-.7-.4-1.6-.4-2.5v-1c0-.9.1-1.8.4-2.5.2-.7.6-1.4 1.1-1.9s1-.9 1.7-1.2c.6-.3 1.4-.4 2.2-.4.8 0 1.4.1 2 .3.6.2 1.1.5 1.5.9.4.4.7.9 1 1.4.2.5.4 1.1.5 1.8h-2.2c0-.4-.1-.8-.2-1.1-.1-.3-.3-.6-.5-.8-.2-.2-.5-.4-.8-.5-.3-.1-.7-.2-1.2-.2s-1 .1-1.3.3c-.4.2-.7.5-.9.8-.3.4-.4.8-.6 1.3-.1.5-.2 1.1-.2 1.8v1.1c0 .6.1 1.2.2 1.7s.3 1 .5 1.3c.2.4.5.7.9.9s.8.3 1.3.3.9-.1 1.2-.2c.3-.1.6-.3.8-.5s.4-.5.5-.8c.1-.3.2-.7.3-1.1h1.9zm16.5 1.2h-5l-1 3h-2.3l4.8-12.8h2l4.8 12.8h-2.3l-1-3zm-4.4-1.8h3.7l-1.9-5.3-1.8 5.3zm17.3 1.5c0-.3 0-.5-.1-.7-.1-.2-.2-.4-.4-.6-.2-.2-.5-.3-.8-.5-.4-.2-.8-.3-1.4-.5-.6-.2-1.2-.4-1.7-.6-.5-.2-1-.5-1.3-.8s-.7-.7-.9-1.1-.3-.9-.3-1.4c0-.5.1-1 .3-1.4.2-.4.5-.8.9-1.1.4-.3.9-.6 1.4-.7.6-.2 1.2-.3 1.8-.3.7 0 1.4.1 1.9.3s1.1.5 1.5.8c.4.4.7.8.9 1.2.2.5.3 1 .3 1.5H522c0-.3 0-.6-.2-.8-.1-.3-.2-.5-.4-.7s-.5-.3-.8-.4c-.3-.1-.7-.2-1.1-.2-.4 0-.7 0-1 .1-.3.1-.5.2-.7.4-.2.2-.3.3-.4.6-.1.2-.1.5-.1.7 0 .5.2.9.7 1.2.4.3 1.1.6 2 .9.7.2 1.3.5 1.9.7.5.3 1 .6 1.3.9.3.3.6.7.8 1.1.2.4.3.9.3 1.4 0 .5-.1 1-.3 1.4-.2.4-.5.8-.9 1.1-.4.3-.9.5-1.4.7-.6.2-1.2.2-1.9.2-.6 0-1.2-.1-1.8-.2-.6-.2-1.1-.4-1.6-.8-.5-.3-.9-.8-1.2-1.3-.3-.5-.4-1.1-.4-1.8h2.2c0 .4.1.8.2 1 .2.3.4.5.6.7.2.2.5.3.9.4.3.1.7.1 1.1.1.8 0 1.3-.2 1.7-.5.4 0 .6-.4.6-1zm12.2 0c0-.3 0-.5-.1-.7-.1-.2-.2-.4-.4-.6s-.5-.3-.8-.5c-.4-.2-.8-.3-1.4-.5-.6-.2-1.2-.4-1.7-.6-.5-.2-1-.5-1.3-.8-.4-.3-.7-.7-.9-1.1-.2-.4-.3-.9-.3-1.4 0-.5.1-1 .3-1.4.2-.4.5-.8.9-1.1.4-.3.9-.6 1.4-.7.5-.2 1.2-.3 1.8-.3.7 0 1.4.1 1.9.3.6.2 1.1.5 1.5.8.4.4.7.8.9 1.2.2.5.3 1 .3 1.5h-2.2c0-.3-.1-.6-.2-.8-.1-.3-.2-.5-.4-.7s-.5-.3-.8-.4c-.3-.1-.7-.2-1.1-.2-.4 0-.7 0-1 .1-.3.1-.5.2-.7.4-.2.2-.3.3-.4.6-.1.2-.1.5-.1.7 0 .5.2.9.7 1.2.5.3 1.1.6 2.1.9.7.2 1.3.5 1.9.7.5.3 1 .6 1.3.9.3.3.6.7.8 1.1.2.4.2.9.2 1.4 0 .5-.1 1-.3 1.4-.2.4-.5.8-.9 1.1-.4.3-.9.5-1.4.7-.6.2-1.2.2-1.9.2-.6 0-1.2-.1-1.8-.2-.6-.2-1.1-.4-1.6-.8-.5-.3-.9-.8-1.2-1.3-.3-.5-.4-1.1-.4-1.8h2.2c0 .4.1.8.2 1s.3.5.6.7c.2.2.5.3.9.4.3.1.7.1 1.1.1.8 0 1.3-.2 1.7-.5.4 0 .6-.4.6-1zm13.1-2.4h-5.2v3.9h6.1v1.7h-8.4v-12.8h8.3v1.8h-6.1v3.5h5.2v1.9h.1zm13.5-5.3h-4v11h-2.2v-11h-4v-1.8h10.1v1.8h.1zm9.8 7.7c0-.3 0-.5-.1-.7-.1-.2-.2-.4-.4-.6-.2-.2-.5-.3-.8-.5-.3-.2-.8-.3-1.4-.5-.6-.2-1.2-.4-1.7-.6-.5-.2-1-.5-1.3-.8s-.7-.7-.9-1.1c-.2-.4-.3-.9-.3-1.4 0-.5.1-1 .3-1.4.2-.4.5-.8.9-1.1.4-.3.9-.6 1.4-.7.5-.2 1.2-.3 1.8-.3.7 0 1.4.1 1.9.3.6.2 1.1.5 1.5.8.4.4.7.8.9 1.2.2.5.3 1 .3 1.5h-2.2c0-.3 0-.6-.1-.9-.1-.3-.2-.5-.4-.7-.2-.2-.5-.3-.8-.4-.3-.1-.7-.2-1.1-.2-.4 0-.7.1-1 .1-.3.1-.5.2-.7.4-.2.2-.3.3-.4.6-.1.2-.1.5-.1.7 0 .5.2.9.7 1.2s1.1.6 2 .9c.7.2 1.4.4 1.9.7.5.3 1 .6 1.3.9.4.3.6.7.8 1.1.2.4.2.9.2 1.4 0 .5-.1 1-.3 1.5-.2.4-.5.8-.9 1.1-.4.3-.9.5-1.4.7-.6.2-1.2.2-1.9.2-.6 0-1.2-.1-1.8-.2-.6-.2-1.1-.4-1.6-.8-.5-.3-.8-.8-1.1-1.3-.3-.5-.4-1.1-.4-1.8h2.2c0 .4.1.8.2 1 .1.3.3.5.6.7.2.2.5.3.9.4.3.1.7.1 1.1.1.8 0 1.4-.2 1.8-.5.2 0 .4-.4.4-1z" class="st1"/></g></mask><path id="Shape_105_" d="M422.6-92h155.3v23.2H422.6z" class="st111"/></g></g></g></svg>