<?xml version="1.0" encoding="utf-8"?>
<!-- Generator: Adobe Illustrator 18.1.1, SVG Export Plug-In . SVG Version: 6.00 Build 0)  -->
<svg version="1.1" id="Layer_x5F_1_x5F_1" xmlns="http://www.w3.org/2000/svg" xmlns:xlink="http://www.w3.org/1999/xlink" x="0px"
	 y="0px" viewBox="0 0 960 560" enable-background="new 0 0 960 560" xml:space="preserve">
<g>
	<polygon points="468.1,-730.3 -464.7,-1059.5 -464.7,970.5 468.1,668.8 	"/>
	<polygon fill="#FFFFFF" points="445.7,-731.4 1414.1,-1060.6 1414.1,969.5 445.7,667.8 	"/>
	<polygon fill="#FFFFFF" points="-706.5,1325.9 445.7,941.9 445.7,-731.6 -706.5,-347.5 	"/>
	<polygon points="970.7,1351.2 1134,1619.9 1220.1,1370.3 	"/>
	<g>
		<path d="M-314.8-154.8c-6.1-6,8,49.1,27.6,68.9c34.8,35.1,61.9,39.6,76.4,40.2c32,1.3,71.5-8,94.9-17.8
			c22.7-9.7,62.4-30,77.5-59.6c3.2-6.3,11.9-17,6.4-43.2c-4.1-20.2-17-27.3-32.7-26.1c-15.7,1.1-63.2,13.7-86.1,20.8
			c-23,7-70.3,21.4-90.9,25.8C-262.2-141.3-307.5-147.8-314.8-154.8z"/>
		<path d="M266.6,504.2C257.5,500.9,69.7,423,43,410.3C21.2,399.8-32.2,377.2-57.3,367C13.5,257.8,58.2,175.4,64.1,162.9
			c11-23,86-169.6,87.7-178.7c1.7-9.2,3.8-43,2.2-51c-1.7-8.2-29.1,7.5-66.4,20.2C50.2-34-20.8,12.2-48.2,18
			c-27.5,5.7-115.5,39.1-160.5,54S-339,112.9-374,122.4c-35.1,9.5-65.7,10.2-85.3,16.2c0,0,2.6,27.5,7.8,35.7
			c5.2,8.2,23.7,28.4,45.3,34.1c21.6,5.7,57.3,3.4,73.6-0.3c16.3-3.8,44.4-17.5,48.2-23.5c3.8-6.1-2-24.9,4.5-30.6
			c6.5-5.6,92.2-25.7,124.6-35.4C-123,108.5,0.9,65.8,17.7,68c-5.3,17.7-105,215.1-137.1,274c-32.1,58.9-218.6,318-258.3,363.6
			c-30.1,34.7-103.2,123.5-128.5,143.6c6.4,1.8,51.6-2.1,59.9-7.2c51.3-31.6,136.9-138.1,164.4-170.5
			c81.9-96,153.8-196.8,210.8-283.4h0.1c11.1,4.6,100.9,77.8,124.4,94c23.4,16.2,115.9,67.8,136,76.4c20,8.7,97.1,44.2,100.3,32.2
			C292.9,578.5,275.7,507.6,266.6,504.2z"/>
	</g>
	<path fill-rule="evenodd" clip-rule="evenodd" d="M-167.5,1482.5c18,11,35,20,54,29c38,19,81,39,122,54c56,21,112,38,168,51
		c31,7,65,13,98,18c3,0,92,11,110,11h90c35-3,68-5,103-10c28-4,59-9,89-16c22-5,45-10,67-17c21-6,45-14,68-22c15-5,31-12,47-18
		c13-6,29-13,44-19c18-8,39-19,59-29c16-8,34-18,51-28c13-7,43-30,59-30c18,0,30,16,30,30c0,29-39,38-57,51c-19,13-42,23-62,34
		c-40,21-81,39-120,54c-51,19-107,37-157,49c-19,4-38,9-57,12c-10,2-114,18-143,18h-132c-35-3-72-7-107-12c-31-5-64-11-95-18
		c-24-5-50-12-73-19c-40-11-79-25-117-40c-69-26-141-60-209-105c-12-8-13-16-13-25c0-15,11-29,29-29
		C-205.5,1456.5-173.5,1479.5-167.5,1482.5z"/>
	<path fill-rule="evenodd" clip-rule="evenodd" d="M414.5,919.5l-1090,363v-1608l1090-363V919.5z M475.5-735.5v1680c-1,5-3,10-7,15
		c-2,3-6,7-9,8c-25,10-1151,388-1166,388c-12,0-23-8-29-21c0-1-1-2-1-4v-1681c2-5,3-12,7-16c8-11,22-13,31-16
		c17-6,1126-378,1142-378C453.5-760.5,475.5-753.5,475.5-735.5z"/>
	<path fill-rule="evenodd" clip-rule="evenodd" d="M1383.5,927.5l-907-282v-1355l907-308V927.5z M1444.5-1057.5v2023
		c-1,23-17,33-32,33c-13,0-107-32-123-37c-126-39-253-78-378-117c-28-9-57-18-84-27c-24-7-50-15-74-23c-107-33-216-66-323-102
		c-4-1-14-15-14-18v-1413c2-5,4-11,9-15c8-9,351-123,486-168c36-13,487-168,501-168C1430.5-1089.5,1444.5-1076.5,1444.5-1057.5z"/>
	<polygon points="1674.7,1351.2 463,965 468.1,-716.3 1674.7,-332.3 	"/>
	<g>
		<path fill-rule="evenodd" clip-rule="evenodd" fill="#FFFFFF" d="M1063.8,35L944.9,322.5l218.6,66.3L1063.8,35z M992.5-236.3
			l156.1,47.3L1433,836l-160.3-48.7L1215,576.9L883.7,476.5l-71.3,171.4L652,599.2L992.5-236.3z"/>
	</g>
</g>
</svg>
