<?xml version="1.0" encoding="UTF-8" standalone="no"?>
<svg width="3916px" height="1524px" viewBox="0 0 3916 1524" version="1.1" xmlns="http://www.w3.org/2000/svg" xmlns:xlink="http://www.w3.org/1999/xlink">
    <!-- Generator: Sketch 39.1 (31720) - http://www.bohemiancoding.com/sketch -->
    <title>logo-on-dark-bg</title>
    <desc>Created with Sketch.</desc>
    <defs></defs>
    <g id="Logo-+-Text" stroke="none" stroke-width="1" fill="none" fill-rule="evenodd">
        <g id="logo-on-dark-bg">
            <g transform="translate(435.000000, 336.000000)" id="logo">
                <g>
                    <g id="cube">
                        <polygon id="border" fill="#FFFFFF" points="386.995555 0 773.991111 218.926312 773.991111 656.778936 386.995555 875.705248 3.88630819e-13 656.778936 1.4029432e-13 218.926312"></polygon>
                        <g stroke-width="1" transform="translate(47.000000, 61.000000)">
                            <g>
                                <path d="M657.873333,580.673665 L352.774704,753.270266 L352.774704,618.855754 L542.907274,514.29798 L657.873333,580.673665 Z M678.756393,561.792596 L678.756393,200.879411 L567.118828,265.333389 L567.118828,485.143908 L567.118828,497.338618 L678.756393,561.792596 Z M20.8830605,580.673665 L325.981689,753.270266 L325.981689,618.855754 L135.849119,514.29798 L20.8830605,580.673665 Z M2.04698823e-13,561.792596 L1.50278002e-28,200.879411 L111.637565,265.333389 L111.637565,485.143908 L111.637565,497.338618 L2.2470914e-13,561.792596 Z M13.0709342,177.488009 L325.981689,0.472029449 L325.981689,130.421685 L125.518524,240.660464 L123.966818,241.513778 L13.0709342,177.488009 Z M665.685459,177.488009 L352.774704,0.472029449 L352.774704,130.421685 L553.237869,240.660464 L554.789575,241.513778 L665.685459,177.488009 Z" id="outer-cube" fill="#8ED6FB"></path>
                                <path d="M325.981689,588.282084 L138.43058,485.143908 L138.43058,280.802344 L325.981689,389.085027 L325.981689,588.282084 Z M352.774704,588.282084 L540.325813,485.143908 L540.325813,280.802344 L352.774704,389.085027 L352.774704,588.282084 Z M339.403391,381.336004 L339.378197,381.292365 L339.353002,381.336004 L339.403391,381.336004 Z M151.088673,257.172588 L339.378197,153.628343 L527.66772,257.172588 L339.378197,365.881595 L151.088673,257.172588 Z" id="inner-cube" fill="#1C78C0"></path>
                            </g>
                        </g>
                    </g>
                    <g id="webpack-on-dark-bg" transform="translate(894.000000, 188.000000)" fill="#F5FAFA">
                        <path d="M270.268747,388.281686 L352.791235,388.281686 L436.921304,108.067318 L356.542257,108.067318 L306.707248,306.842711 L253.657077,108.067318 L183.995237,108.067318 L130.409206,306.842711 L81.1100575,108.067318 L0.731010929,108.067318 L84.3252193,388.281686 L166.847707,388.281686 L218.826157,208.794472 L270.268747,388.281686 Z M441.208186,248.978176 C441.208186,333.096065 498.545239,395.246862 588.569771,395.246862 C658.231612,395.246862 695.741833,353.455809 706.45904,333.631848 L657.695751,296.662839 C649.657847,308.45006 627.687574,330.952934 589.641492,330.952934 C548.380248,330.952934 518.372071,304.163798 516.76449,266.659007 L713.961084,266.659007 C714.496944,261.301179 714.496944,255.943352 714.496944,250.585525 C714.496944,158.966678 665.197796,101.102143 578.388425,101.102143 C498.545239,101.102143 441.208186,164.324505 441.208186,248.978176 L441.208186,248.978176 Z M518.907931,218.438561 C522.123093,186.291597 544.629226,161.645591 579.460146,161.645591 C613.219346,161.645591 637.86892,184.148466 639.476501,218.438561 L518.907931,218.438561 Z M742.36168,388.281686 L812.023521,388.281686 L812.023521,359.349419 C819.525565,368.457725 847.390301,395.246862 895.081869,395.246862 C975.460915,395.246862 1032.26211,334.703413 1032.26211,248.442394 C1032.26211,161.645591 979.747798,101.102143 899.368751,101.102143 C851.141323,101.102143 823.276587,127.891279 816.310403,137.535368 L816.310403,0.91077194 L742.36168,0.91077194 L742.36168,388.281686 Z M814.166962,248.978176 C814.166962,196.471469 845.24686,166.467636 885.972244,166.467636 C928.841068,166.467636 957.777525,200.221948 957.777525,248.978176 C957.777525,298.80597 927.769348,329.881369 885.972244,329.881369 C840.959978,329.881369 814.166962,293.448143 814.166962,248.978176 L814.166962,248.978176 Z M1061.19857,488.473057 L1135.14729,488.473057 L1135.14729,359.349419 C1142.11347,368.457725 1169.97821,395.246862 1218.20564,395.246862 C1298.58468,395.246862 1351.09899,334.703413 1351.09899,247.906611 C1351.09899,162.181374 1294.2978,101.102143 1213.91875,101.102143 C1166.22719,101.102143 1138.36245,127.891279 1130.86041,137.535368 L1130.86041,108.067318 L1061.19857,108.067318 L1061.19857,488.473057 Z M1133.00385,247.370828 C1133.00385,202.900862 1159.79686,166.467636 1204.80913,166.467636 C1246.60623,166.467636 1276.61441,197.543034 1276.61441,247.370828 C1276.61441,296.127057 1247.67795,329.881369 1204.80913,329.881369 C1164.08374,329.881369 1133.00385,299.877536 1133.00385,247.370828 L1133.00385,247.370828 Z M1364.4955,301.484884 C1364.4955,360.420984 1412.72293,395.246862 1469.52412,395.246862 C1501.67574,395.246862 1523.11015,385.602773 1537.57838,370.065074 L1542.40112,388.281686 L1607.77608,388.281686 L1607.77608,210.937603 C1607.77608,148.251023 1580.98307,101.102143 1490.95853,101.102143 C1448.08971,101.102143 1405.75674,117.175625 1380.57131,134.320672 L1408.43605,184.684249 C1429.3346,173.968594 1455.05589,164.860288 1482.92063,164.860288 C1515.60811,164.860288 1533.82736,181.469552 1533.82736,206.115558 L1533.82736,224.332171 C1523.64601,217.366995 1501.67574,208.794472 1473.27514,208.794472 C1407.90019,208.794472 1364.4955,246.299263 1364.4955,301.484884 L1364.4955,301.484884 Z M1438.44422,299.341753 C1438.44422,276.303096 1458.27106,260.229614 1486.67165,260.229614 C1515.07225,260.229614 1535.43494,274.695748 1535.43494,299.341753 C1535.43494,322.916193 1515.07225,337.91811 1487.20751,337.91811 C1459.34278,337.91811 1438.44422,322.380411 1438.44422,299.341753 L1438.44422,299.341753 Z M1787.28929,329.881369 C1740.66944,329.881369 1707.4461,296.127057 1707.4461,248.442394 C1707.4461,203.436644 1736.91842,166.467636 1784.60998,166.467636 C1816.22574,166.467636 1837.66015,182.005335 1849.98494,193.256772 L1870.88349,131.105976 C1852.66424,117.175625 1823.72779,101.102143 1782.46654,101.102143 C1697.26475,101.102143 1633.49738,163.788722 1633.49738,248.978176 C1633.49738,334.167631 1695.65717,395.246862 1783.0024,395.246862 C1823.72779,395.246862 1854.27182,378.101815 1870.34763,365.243029 L1850.5208,304.69958 C1838.19602,314.879452 1815.68988,329.881369 1787.28929,329.881369 L1787.28929,329.881369 Z M1898.21237,388.281686 L1972.16109,388.281686 L1972.16109,243.620349 L2065.93665,388.281686 L2152.74602,388.281686 L2046.64568,235.047825 L2145.24397,108.067318 L2062.18562,108.067318 L1972.16109,225.939519 L1972.16109,0.91077194 L1898.21237,0.91077194 L1898.21237,388.281686 Z" id="webpack"></path>
                    </g>
                </g>
            </g>
        </g>
    </g>
</svg>