<?xml version="1.0" encoding="UTF-8"?>
<!DOCTYPE svg  PUBLIC '-//W3C//DTD SVG 1.0//EN'  'http://www.w3.org/TR/2001/REC-SVG-20010904/DTD/svg10.dtd'>
<svg width="64px" height="64px" enable-background="new 5.5 -3.5 64 64" version="1.0" viewBox="5.5 -3.5 64 64" xmlns="http://www.w3.org/2000/svg"><circle cx="37.637" cy="28.806" r="28.276" fill="#fff"/><path d="m37.443-3.5c8.988 0 16.57 3.085 22.742 9.257 6.208 6.21 9.315 13.791 9.315 22.743 0 8.991-3.049 16.476-9.145 22.456-6.476 6.363-14.113 9.544-22.912 9.544-8.649 0-16.153-3.144-22.514-9.43-6.285-6.286-9.429-13.808-9.429-22.57 0-8.761 3.144-16.342 9.429-22.742 6.172-6.173 13.675-9.258 22.514-9.258zm0.114 5.772c-7.276 0-13.428 2.553-18.457 7.657-5.22 5.334-7.829 11.525-7.829 18.572 0 7.086 2.59 13.22 7.77 18.398 5.181 5.182 11.352 7.771 18.514 7.771 7.123 0 13.334-2.607 18.629-7.828 5.029-4.838 7.543-10.952 7.543-18.343 0-7.276-2.553-13.465-7.656-18.571-5.104-5.104-11.276-7.656-18.514-7.656zm8.572 18.285v13.085h-3.656v15.542h-9.944v-15.541h-3.656v-13.086c0-0.572 0.2-1.057 0.599-1.457 0.401-0.399 0.887-0.6 1.457-0.6h13.144c0.533 0 1.01 0.2 1.428 0.6 0.417 0.4 0.628 0.886 0.628 1.457zm-13.087-8.228c0-3.008 1.485-4.514 4.458-4.514s4.457 1.504 4.457 4.514c0 2.971-1.486 4.457-4.457 4.457s-4.458-1.486-4.458-4.457z"/></svg>
