<svg enable-background="new 0 0 640 480" viewBox="0 0 640 480" xmlns="http://www.w3.org/2000/svg"><path d="m208 188c-1.6 0-3-1.4-3-3v-93c0-1.6 1.4-3 3-3h225c1.6 0 3 1.4 3 3v93c0 1.6-1.4 3-3 3z" fill="#fff"/><path d="m427 98v81h-213v-81zm6-18h-225c-6.6 0-12 5.4-12 12v93c0 6.6 5.4 12 12 12h225c6.6 0 12-5.4 12-12v-93c0-6.6-5.4-12-12-12z"/><path d="m100 342c-1.6 0-3-1.4-3-3v-195c0-1.6 1.4-3 3-3h442c1.6 0 3 1.4 3 3v195c0 1.6-1.4 3-3 3z" fill="#fff"/><path d="m536 150v183h-430v-183zm6-18h-442c-6.6 0-12 5.4-12 12v195c0 6.6 5.4 12 12 12h442c6.6 0 12-5.4 12-12v-195c0-6.6-5.4-12-12-12z"/><path d="m452 182c-3.9 0-7-3.1-7-7s3.1-7 7-7h14c3.9 0 7 3.1 7 7s-3.1 7-7 7z"/><path d="m466 171c2.2 0 4 1.8 4 4s-1.8 4-4 4h-14c-2.2 0-4-1.8-4-4s1.8-4 4-4zm0-6h-14c-5.5 0-10 4.5-10 10s4.5 10 10 10h14c5.5 0 10-4.5 10-10s-4.5-10-10-10z"/><path d="m500 182c-3.9 0-7-3.1-7-7s3.1-7 7-7h14c3.9 0 7 3.1 7 7s-3.1 7-7 7z"/><path d="m514 171c2.2 0 4 1.8 4 4s-1.8 4-4 4h-14c-2.2 0-4-1.8-4-4s1.8-4 4-4zm0-6h-14c-5.5 0-10 4.5-10 10s4.5 10 10 10h14c5.5 0 10-4.5 10-10s-4.5-10-10-10z"/><g stroke="#000" stroke-miterlimit="10"><path d="m138 284h364" fill="none" stroke-width="18"/><path d="m464 412h-284c-6.6 0-12-5.4-12-12v-116h308v116c0 6.6-5.4 12-12 12z" fill="#fff" stroke-width="18"/><g fill="none" stroke-width="6"><path d="m196.1 316.8 248.7-1.6"/><path d="m196.2 346.8 248.6-1.6"/><path d="m196.2 376.8 248.7-1.6"/></g></g></svg>