<svg height="1632" viewBox="0 0 1632 1632" width="1632" xmlns="http://www.w3.org/2000/svg"><path d="m1440 1200c0-26.66667-9.33333-49.33333-28-68l-208-208c-18.66667-18.666667-41.33333-28-68-28-28 0-52 10.666667-72 32 2 2 8.33333 8.166667 19 18.5s17.83333 17.5 21.5 21.5 8.66667 10.333333 15 19 10.66667 17.16667 13 25.5 3.5 17.5 3.5 27.5c0 26.66667-9.33333 49.33333-28 68s-41.33333 28-68 28c-10 0-19.16667-1.16667-27.5-3.5s-16.833333-6.66667-25.5-13-15-11.33333-19-15-11.166667-10.83333-21.5-21.5-16.5-17-18.5-19c-22 20.66667-33 45-33 73 0 26.66667 9.333333 49.33333 28 68l206 207c18 18 40.66667 27 68 27 26.66667 0 49.33333-8.66667 68-26l147-146c18.66667-18.66667 28-41 28-67zm-703-705c0-26.666667-9.333333-49.333333-28-68l-206-207c-18.666667-18.666667-41.333333-28-68-28-26 0-48.666667 9-68 27l-147 146c-18.666667 18.666667-28 41-28 67 0 26.666667 9.333333 49.333333 28 68l208 208c18 18 40.666667 27 68 27 28 0 52-10.333333 72-31-2-2-8.333333-8.166667-19-18.5s-17.833333-17.5-21.5-21.5-8.666667-10.333333-15-19-10.666667-17.166667-13-25.5-3.5-17.5-3.5-27.5c0-26.666667 9.333333-49.333333 28-68s41.333333-28 68-28c10 0 19.166667 1.166667 27.5 3.5s16.833333 6.666667 25.5 13 15 11.333333 19 15 11.166667 10.833333 21.5 21.5 16.5 17 18.5 19c22-20.666667 33-45 33-73zm895 705c0 80-28.33333 147.66667-85 203l-147 146c-55.33333 55.33333-123 83-203 83-80.66667 0-148.66667-28.33333-204-85l-206-207c-55.333333-55.33333-83-123-83-203 0-82 29.333333-151.666667 88-209l-88-88c-57.333333 58.666667-126.666667 88-208 88-80 0-148-28-204-84l-208-208c-56-56-84-124-84-204s28.3333333-147.666667 85-203l147-146c55.333333-55.3333333 123-83 203-83 80.666667 0 148.666667 28.3333333 204 85l206 207c55.333333 55.333333 83 123 83 203 0 82-29.333333 151.666667-88 209l88 88c57.333333-58.666667 126.66667-88 208-88 80 0 148 28 204 84l208 208c56 56 84 124 84 204z" fill="#465e69"/></svg>