<svg fill="none" height="32" viewBox="0 0 162 32" width="162" xmlns="http://www.w3.org/2000/svg"><rect fill="#1374ef" height="32" rx="4" width="162"/><path d="m32 0h1v32h-1z" fill="#1269d3"/><g fill="#fff"><path d="m49.1015 16.1515c0-2.8377-1.6983-4.5576-3.9944-4.5576-2.3049 0-3.9988 1.7199-3.9988 4.5576 0 2.8334 1.6939 4.5577 3.9988 4.5577 2.2961 0 3.9944-1.72 3.9944-4.5577zm-1.3257 0c0 2.1619-1.1437 3.336-2.6687 3.336-1.5294 0-2.6688-1.1741-2.6688-3.336 0-2.1618 1.1394-3.3359 2.6688-3.3359 1.525 0 2.6687 1.1741 2.6687 3.3359zm3.1348 6.9318h1.2954v-3.5308h.078c.2339.4245.7105 1.1654 1.9236 1.1654 1.6116 0 2.7813-1.2911 2.7813-3.4443 0-2.1575-1.187-3.4269-2.7943-3.4269-1.2348 0-1.681.7538-1.9106 1.1654h-.1083v-1.0788h-1.2651zm1.2694-5.8227c0-1.3907.6065-2.3135 1.7373-2.3135 1.1741 0 1.7633.9921 1.7633 2.3135 0 1.3344-.6066 2.3525-1.7633 2.3525-1.1134 0-1.7373-.9531-1.7373-2.3525zm9.3723 3.4616c1.4514 0 2.4782-.7148 2.7728-1.7979l-1.2261-.221c-.2339.6282-.7972.9488-1.5337.9488-1.1091 0-1.8542-.7192-1.8889-2.0016h4.731v-.4592c0-2.4045-1.4384-3.3446-2.946-3.3446-1.8543 0-3.076 1.4124-3.076 3.4572 0 2.0666 1.2044 3.4183 3.1669 3.4183zm-1.8716-4.0421c.052-.9445.7366-1.7633 1.7893-1.7633 1.0051 0 1.6637.7452 1.668 1.7633zm7.7033-.0433c0-1.0615.6499-1.668 1.551-1.668.8795 0 1.4124.5762 1.4124 1.5423v4.0768h1.2954v-4.2328c0-1.6463-.9055-2.5084-2.2659-2.5084-1.0008 0-1.6549.4636-1.9625 1.1697h-.0824v-1.0831h-1.2434v6.6546h1.2954zm9.7128 3.9511h1.2953v-6.6546h-1.2953zm.6542-7.6813c.4462 0 .8188-.3466.8188-.7712s-.3726-.7755-.8188-.7755c-.4506 0-.8189.3509-.8189.7755s.3683.7712.8189.7712zm3.9232 3.7302c0-1.0615.6499-1.668 1.551-1.668.8795 0 1.4124.5762 1.4124 1.5423v4.0768h1.2954v-4.2328c0-1.6463-.9055-2.5084-2.2659-2.5084-1.0007 0-1.6549.4636-1.9625 1.1697h-.0824v-1.0831h-1.2433v6.6546h1.2953zm14.656-2.5908h1.2911c-.039-1.421-1.2954-2.4521-3.0977-2.4521-1.7806 0-3.1453 1.0181-3.1453 2.5474 0 1.2347.8838 1.9582 2.3092 2.3438l1.0484.286c.9488.2512 1.681.5632 1.681 1.3517 0 .8664-.8275 1.4383-1.9669 1.4383-1.0311 0-1.889-.4592-1.9669-1.4253h-1.3431c.0867 1.6073 1.3301 2.5994 3.3186 2.5994 2.0839 0 3.284-1.0961 3.284-2.5994 0-1.5987-1.4254-2.2182-2.5518-2.4955l-.8665-.2253c-.6932-.1776-1.616-.5025-1.6116-1.3517 0-.7538.6888-1.3127 1.7806-1.3127 1.0181 0 1.7416.4766 1.8369 1.2954zm6.2588-.1127h-1.365v-1.5943h-1.2954v1.5943h-.9748v1.0398h.9748v3.9295c-.0044 1.2087.9184 1.7936 1.9404 1.7719.412-.0043.689-.0823.841-.1386l-.234-1.0701c-.087.0173-.247.0563-.455.0563-.42 0-.797-.1386-.797-.8881v-3.6609h1.365zm3.613 6.8019c1.101 0 1.72-.5589 1.967-1.0571h.052v.9098h1.265v-4.419c0-1.9366-1.525-2.3222-2.582-2.3222-1.204 0-2.313.4852-2.747 1.6983l1.218.2773c.19-.4723.676-.9272 1.546-.9272.836 0 1.265.4376 1.265 1.1914v.0304c0 .4722-.485.4635-1.681.6022-1.26.1473-2.551.4765-2.551 1.9885 0 1.3084.983 2.0276 2.248 2.0276zm.282-1.0398c-.732 0-1.261-.3292-1.261-.9704 0-.6932.615-.9402 1.365-1.0398.42-.0563 1.416-.169 1.603-.3553v.8578c0 .7885-.628 1.5077-1.707 1.5077zm7.775 1.0268c1.572 0 2.59-.9445 2.733-2.2398h-1.26c-.165.7191-.724 1.1437-1.465 1.1437-1.096 0-1.802-.9141-1.802-2.3655 0-1.4253.719-2.3221 1.802-2.3221.823 0 1.326.5198 1.465 1.1437h1.26c-.138-1.343-1.234-2.2355-2.746-2.2355-1.876 0-3.089 1.4124-3.089 3.4442 0 2.0059 1.169 3.4313 3.102 3.4313zm4.363-.1343h1.295v-2.3612l.645-.6455 2.262 3.0067h1.59l-2.877-3.7995 2.695-2.8551h-1.551l-2.651 2.8161h-.113v-5.0342h-1.295zm7.139 0h3.4c2.063 0 2.994-1.0268 2.994-2.3872 0-1.3733-.962-2.1488-1.841-2.1965v-.0866c.814-.208 1.495-.7625 1.495-1.8716 0-1.3127-.91-2.3308-2.799-2.3308h-3.249zm1.338-1.1481v-2.842h1.98c1.075 0 1.746.6931 1.746 1.538 0 .7451-.507 1.304-1.793 1.304zm0-3.8861v-2.6991h1.829c1.061 0 1.568.5589 1.568 1.2954 0 .8578-.702 1.4037-1.603 1.4037zm8.079-3.8385h-1.295v8.8727h1.295zm1.987 8.8727h1.295v-6.6546h-1.295zm.654-7.6813c.447 0 .819-.3466.819-.7712s-.372-.7755-.819-.7755c-.45 0-.819.3509-.819.7755s.369.7712.819.7712zm5.734 1.0267h-1.364v-1.5943h-1.296v1.5943h-.974v1.0398h.974v3.9295c-.004 1.2087.919 1.7936 1.941 1.7719.412-.0043.689-.0823.841-.1386l-.234-1.0701c-.087.0173-.247.0563-.455.0563-.42 0-.797-.1386-.797-.8881v-3.6609h1.364zm1.539 6.6546h5.342v-1.1264h-3.588v-.0607l3.466-4.523v-.9445h-5.103v1.1265h3.487v.0606l-3.604 4.5794z"/><path d="m10 17.5882h5.1651l-3.0382 7.4118 9.8731-10.5882h-5.1651l3.0382-7.4118z"/></g></svg>